<?xml version="1.0" encoding="utf-8"?>
<!-- Generator: Adobe Illustrator 25.2.1, SVG Export Plug-In . SVG Version: 6.00 Build 0)  -->
<svg version="1.1" id="Layer_1" xmlns="http://www.w3.org/2000/svg" xmlns:xlink="http://www.w3.org/1999/xlink" x="0px" y="0px"
	 viewBox="0 0 1920 1080" style="enable-background:new 0 0 1920 1080;" xml:space="preserve">
<style type="text/css">
	.st0{fill:#171717;stroke:#66BF00;stroke-width:10;stroke-miterlimit:10;}
	.st1{clip-path:url(#SVGID_2_);}
	.st2{fill:#008500;}
	.st3{fill:#008200;}
	.st4{clip-path:url(#SVGID_4_);}
	.st5{fill:#00DB00;}
	.st6{fill:#00D600;}
	.st7{fill:#00D100;}
	.st8{fill:#00CC00;}
	.st9{fill:#00C700;}
	.st10{fill:#00C200;}
	.st11{fill:#00BD00;}
	.st12{fill:#00B800;}
	.st13{fill:#00B300;}
	.st14{fill:#00AD00;}
	.st15{fill:#00A800;}
	.st16{fill:#00A300;}
	.st17{fill:#009E00;}
	.st18{fill:#009900;}
	.st19{fill:#009400;}
	.st20{clip-path:url(#SVGID_6_);}
	.st21{fill:#008F00;}
	.st22{fill:#008A00;}
	.st23{clip-path:url(#SVGID_8_);}
	.st24{fill:#00B400;}
	.st25{clip-path:url(#SVGID_10_);}
	.st26{clip-path:url(#SVGID_12_);}
	.st27{fill:#00E000;}
	.st28{fill:#00E600;}
	.st29{fill:#00EB00;}
	.st30{fill:#00F000;}
	.st31{fill:#00F500;}
	.st32{fill:#00FA00;}
	.st33{fill:#00FF00;}
	.st34{fill:#1FFF1F;}
	.st35{fill:#2BFF2B;}
	.st36{fill:#35FF35;}
	.st37{fill:#3DFF3D;}
	.st38{fill:#44FF44;}
	.st39{fill:#4BFF4B;}
	.st40{fill:#51FF51;}
	.st41{fill:#57FF57;}
	.st42{fill:#5CFF5C;}
	.st43{fill:#61FF61;}
	.st44{fill:#65FF65;}
	.st45{fill:#6AFF6A;}
	.st46{fill:#6EFF6E;}
	.st47{clip-path:url(#SVGID_14_);}
	.st48{clip-path:url(#SVGID_16_);}
	.st49{clip-path:url(#SVGID_18_);}
	.st50{clip-path:url(#SVGID_20_);}
	.st51{clip-path:url(#SVGID_22_);}
	.st52{clip-path:url(#SVGID_24_);}
	.st53{fill:#00DF00;}
	.st54{fill:#00CA00;}
	.st55{fill:#00D400;}
	.st56{fill:#008000;}
	.st57{fill:#00B600;}
	.st58{clip-path:url(#SVGID_26_);}
	.st59{clip-path:url(#SVGID_28_);}
	.st60{clip-path:url(#SVGID_30_);}
	.st61{fill:#0C0C0C;}
	.st62{fill:#0D0D0D;}
	.st63{fill:#0E0E0E;}
	.st64{fill:#0F0F0F;}
	.st65{fill:#101010;}
	.st66{clip-path:url(#SVGID_32_);}
	.st67{clip-path:url(#SVGID_34_);}
	.st68{fill:#111111;}
	.st69{fill:#121212;}
	.st70{fill:#131313;}
	.st71{fill:#141414;}
	.st72{clip-path:url(#SVGID_36_);}
	.st73{fill:#151515;}
	.st74{clip-path:url(#SVGID_38_);}
	.st75{fill:#00AA00;}
	.st76{fill:#00E700;}
	.st77{fill:#00AB00;}
	.st78{fill:#00B900;}
</style>
<rect x="0.5" y="0.5" class="st0" width="1919" height="1079"/>
<path d="M1919,1v1078H1V1H1919 M1920,0H0v1080h1920V0z"/>
<g>
	<g>
		<g>
			<defs>
				<path id="SVGID_1_" d="M571,500.2c0.1-46.7,0.2-93.3,0.3-140c0-3.8,0-8.9,0-12.7s0-8.9,0-12.7c0-7.6,0-17.8,0-25.5
					c0-3.8,0-8.9,0-12.7c0-12.7,0-25.5,0.1-38.2c0-3.8,0-8.9,0-12.7c0,0.2,0.1,0.3,0.2,0.4L571,500.2
					C571.1,500.1,571,500.1,571,500.2z"/>
			</defs>
			<clipPath id="SVGID_2_">
				<use xlink:href="#SVGID_1_"  style="overflow:visible;"/>
			</clipPath>
			<g class="st1">
				<g>
					<path class="st2" d="M571.7,246.1l-0.5,254.1c-0.1-0.1-0.2-0.1-0.2,0v-12.7v-12.7V462v-12.7v-12.7v-12.7v-12.7v-12.7v-12.7V373
						v-12.7v-12.7v-12.7v-12.7v-12.7v-12.7l0,0v-12.7v-12.7v-12.7v-12.7l0,0c0,0.2,0.1,0.3,0.2,0.4"/>
				</g>
			</g>
		</g>
	</g>
	<polygon class="st3" points="583.4,506.8 571.2,500.2 571.7,246.1 583.9,252.7 	"/>
	<g>
		<g>
			<defs>
				<path id="SVGID_3_" d="M590.3,245.6L590,392.5c0,8,0,18.7,0,26.7s0,18.7,0,26.7s0,18.7,0,26.7s0,18.7,0,26.7c0,4,0,9.3,0,13.4
					c-0.7-1-1.6-1.9-2.5-2.7l0.5-259.8C589.3,248.2,590.3,246.4,590.3,245.6z"/>
			</defs>
			<clipPath id="SVGID_4_">
				<use xlink:href="#SVGID_3_"  style="overflow:visible;"/>
			</clipPath>
			<g class="st4">
				<g>
					<path class="st5" d="M587.3,510l0.5-259.8c0.3-0.3,0.6-0.7,0.8-1l-0.5,261.7L587.3,510"/>
					<path class="st6" d="M588.1,510.7l0.5-261.7c0.2-0.3,0.4-0.5,0.5-0.8l-0.5,263L588.1,510.7"/>
					<path class="st7" d="M588.6,511.3l0.5-263c0.1-0.2,0.2-0.4,0.3-0.5l-0.5,263.8L588.6,511.3"/>
					<path class="st8" d="M588.9,511.6l0.5-263.8l0.2-0.4l-0.5,264.5L588.9,511.6"/>
					<path class="st9" d="M589.2,511.8l0.5-264.5c0.1-0.1,0.1-0.2,0.2-0.3L589.3,512L589.2,511.8"/>
					<path class="st10" d="M589.3,512l0.5-264.9l0.1-0.3l-0.5,265.4L589.3,512"/>
					<path class="st11" d="M589.5,512.2l0.5-265.3c0-0.1,0.1-0.1,0.1-0.2l-0.5,265.7L589.5,512.2"/>
					<path class="st12" d="M589.5,512.3l0.5-265.7c0-0.1,0-0.1,0.1-0.2l-0.5,266L589.5,512.3"/>
					<path class="st13" d="M589.6,512.4l0.5-266c0,0,0-0.1,0.1-0.2L589.6,512.4L589.6,512.4"/>
					<path class="st14" d="M589.7,512.5l0.5-266.2c0-0.1,0-0.1,0-0.2L589.7,512.5L589.7,512.5"/>
					<path class="st15" d="M589.7,512.5l0.5-266.4c0-0.1,0-0.1,0-0.1v13.3v13.3v13.3v13.3v13.3v13.3v13.3v13.3v13.3v13.4v13.3v13.3
						v13.3v13.3V446v13.3v13.3v13.3v13.3v13.3v0"/>
					<path class="st16" d="M589.8,512.6l0.5-266.6c0,0,0-0.1,0-0.1L589.8,512.6L589.8,512.6"/>
					<path class="st17" d="M589.8,512.6v-13.3V486v-13.3v-13.3V446v-13.3v-13.4v-13.4v-13.3v-13.4v-13.4v-13.4v-13.4v-13.3v-13.4
						v-13.3v-13.3v-13.3v-13.3v-13.3c0,0,0-0.1,0-0.1l-0.5,267l0,0"/>
					<path class="st18" d="M589.8,512.7l0.5-267v-0.1L589.8,512.7L589.8,512.7"/>
					<path class="st19" d="M589.8,512.7l0.5-267.1l0,0v13.3v13.4v13.4V299v13.4v13.4v13.4v13.4v13.4v13.4v13.4v13.4v13.4v13.4v13.4
						v13.4v13.4V486v13.4v13.3l0,0"/>
				</g>
			</g>
		</g>
	</g>
	<g>
		<g>
			<defs>
				<path id="SVGID_5_" d="M588.2,510.8c-1.5-1.5-3.1-2.8-4.8-4l0.5-254.1c0.7,0.4,2.8-1.3,4.8-3.7L588.2,510.8z"/>
			</defs>
			<clipPath id="SVGID_6_">
				<use xlink:href="#SVGID_5_"  style="overflow:visible;"/>
			</clipPath>
			<g class="st20">
				<g>
					<path class="st5" d="M588.7,249.1l-0.5,261.8c-0.5-0.4-0.9-0.9-1.4-1.2l0.5-259C587.7,250.1,588.2,249.6,588.7,249.1"/>
					<path class="st6" d="M587.3,250.6l-0.5,259l-0.4-0.4l0.5-258.2L587.3,250.6"/>
					<path class="st7" d="M586.9,251l-0.5,258.2l-0.3-0.3l0.5-257.6C586.7,251.2,586.8,251.1,586.9,251"/>
					<path class="st8" d="M586.5,251.3l-0.5,257.6l-0.3-0.2l0.5-257.2L586.5,251.3"/>
					<path class="st9" d="M586.3,251.5l-0.5,257.2l-0.2-0.2l0.5-256.8L586.3,251.5"/>
					<path class="st10" d="M586,251.7l-0.5,256.8l-0.2-0.2l0.5-256.4L586,251.7"/>
					<path class="st11" d="M585.8,251.9l-0.5,256.4l-0.2-0.2l0.5-256.1L585.8,251.9"/>
					<path class="st12" d="M585.6,252l-0.5,256.1L585,508l0.5-255.8L585.6,252"/>
					<path class="st13" d="M585.4,252.2L585,508l-0.2-0.1l0.5-255.5L585.4,252.2"/>
					<path class="st14" d="M585.3,252.3l-0.5,255.5l-0.2-0.1l0.5-255.3L585.3,252.3"/>
					<path class="st15" d="M585.1,252.4l-0.5,255.3l-0.2-0.1l0.5-255.1L585.1,252.4"/>
					<path class="st16" d="M584.9,252.5l-0.5,255.1l-0.1-0.1l0.5-254.9L584.9,252.5"/>
					<path class="st17" d="M584.8,252.6l-0.5,254.9l-0.1-0.1l0.5-254.7L584.8,252.6"/>
					<path class="st18" d="M584.7,252.6l-0.5,254.7l-0.1-0.1l0.5-254.6L584.7,252.6"/>
					<path class="st19" d="M584.5,252.7l-0.5,254.6l-0.1-0.1l0.5-254.4L584.5,252.7"/>
					<path class="st21" d="M584.4,252.7l-0.5,254.4l-0.1-0.1l0.5-254.3L584.4,252.7"/>
					<path class="st22" d="M584.3,252.8l-0.5,254.3l-0.2-0.1l0.5-254.2L584.3,252.8"/>
					<path class="st2" d="M584.1,252.8L583.7,507c-0.1-0.1-0.2-0.1-0.3-0.2l0.5-254.1C583.9,252.8,584,252.8,584.1,252.8"/>
				</g>
			</g>
		</g>
	</g>
	<g>
		<g>
			<defs>
				<path id="SVGID_7_" d="M317.1,535.8l253.9-35.7c0.1,0,0.1,0,0.2,0.1l-253.8,35.7C317.4,535.8,317.3,535.8,317.1,535.8z"/>
			</defs>
			<clipPath id="SVGID_8_">
				<use xlink:href="#SVGID_7_"  style="overflow:visible;"/>
			</clipPath>
			<g class="st23">
				<g>
					<path class="st15" d="M571.2,500.2l-253.8,35.7l0,0l12.7-1.8l12.7-1.8l12.7-1.8l12.7-1.8l12.7-1.8l12.7-1.8l12.7-1.8l12.7-1.8
						l12.7-1.8l12.6-1.8l12.7-1.8l12.7-1.8l12.7-1.8l12.7-1.8l12.7-1.8l12.7-1.8l12.7-1.8l12.7-1.8l12.7-1.7L571.2,500.2
						L571.2,500.2"/>
					<path class="st16" d="M571.2,500.2l-253.8,35.7l0,0L571.2,500.2L571.2,500.2"/>
					<path class="st17" d="M571.2,500.2l-253.8,35.7h0L571.2,500.2L571.2,500.2"/>
					<path class="st18" d="M571.1,500.1l-253.8,35.7h-0.1L571.1,500.1L571.1,500.1"/>
					<path class="st19" d="M571.1,500.1l-253.8,35.7h-0.1L571.1,500.1L571.1,500.1"/>
					<path class="st21" d="M571.1,500.1l-253.8,35.7h-0.1L571.1,500.1L571.1,500.1"/>
					<polyline class="st22" points="571.1,500.1 317.2,535.8 317.1,535.8 317.1,535.8 329.9,534 342.5,532.2 355.2,530.5 
						367.9,528.7 380.6,526.9 393.3,525.1 393.3,525.1 406,523.3 418.7,521.5 431.4,519.8 444.1,518 456.8,516.2 469.5,514.4 
						482.2,512.6 494.9,510.8 507.6,509 520.3,507.3 533,505.5 545.7,503.7 558.4,501.9 571.1,500.1 571.1,500.1 					"/>
				</g>
			</g>
		</g>
	</g>
	<polygon class="st24" points="329.6,542.5 317.5,535.9 571.2,500.2 583.4,506.8 	"/>
	<g>
		<g>
			<defs>
				<path id="SVGID_9_" d="M589.8,512.7l-133,18.7l-39.9,5.6l-13.3,1.9l-53.2,7.5c-8,1.1-18.6,3.2-26.6,3.7c0.9-0.1,2.7-1.7,4.5-3.7
					L587.3,510C589,511.6,590,512.7,589.8,512.7z"/>
			</defs>
			<clipPath id="SVGID_10_">
				<use xlink:href="#SVGID_9_"  style="overflow:visible;"/>
			</clipPath>
			<g class="st25">
				<g>
					<path class="st5" d="M328.2,546.4L587.3,510l0.1,0.1L328,546.5L328.2,546.4"/>
					<path class="st6" d="M328,546.5l259.4-36.4l0.2,0.2l-259.7,36.5L328,546.5"/>
					<path class="st7" d="M327.9,546.8l259.7-36.5l0.2,0.2L327.6,547C327.7,546.9,327.8,546.8,327.9,546.8"/>
					<path class="st8" d="M327.6,547l260.1-36.6l0.2,0.2l-260.5,36.6C327.5,547.2,327.6,547.1,327.6,547"/>
					<path class="st9" d="M327.5,547.2L588,510.6c0.1,0.1,0.1,0.1,0.2,0.2l-260.9,36.7L327.5,547.2"/>
					<path class="st10" d="M327.2,547.5l260.9-36.7l0.2,0.2l-13,1.8l-13,1.8l-13,1.8l-13,1.8l-13.1,1.8l-13.1,1.9l-13.1,1.8
						l-13.1,1.8l-13.1,1.8l-13.1,1.8l-13.1,1.8l-13.1,1.8l-13.1,1.8l-13.1,1.8l-13.1,1.8l-13.1,1.8l-13.1,1.8l-13,1.8l-13,1.8
						l-13,1.8L327.2,547.5"/>
					<path class="st11" d="M327,547.7L588.3,511l0.2,0.2l-261.7,36.7L327,547.7"/>
					<path class="st12" d="M326.8,547.9l261.7-36.8l0.2,0.2l-262,36.8L326.8,547.9"/>
					<path class="st13" d="M326.6,548.1l262-36.8l0.2,0.1l-262.4,36.9L326.6,548.1"/>
					<path class="st14" d="M326.4,548.3l262.4-36.9l0.1,0.1l-262.7,36.9L326.4,548.3"/>
					<path class="st15" d="M326.2,548.5l262.7-36.9l0.1,0.1l0,0l-13.1,1.8l-13.1,1.8l-13.1,1.8l-13.1,1.8l-13.2,1.8l-13.2,1.8
						l-13.2,1.8l-13.2,1.8l-13.2,1.9l-13.2,1.8l-13.2,1.9l-13.2,1.8l-13.2,1.9l-13.2,1.9l-13.2,1.8l-13.2,1.8l-13.1,1.8l-13.2,1.8
						l-13.1,1.8l-13.1,1.8L326.2,548.5"/>
					<path class="st16" d="M326,548.7L326,548.7l13.1-1.8l13.1-1.8l13.1-1.8l13.1-1.8l13.2-1.8l13.2-1.8l13.2-1.9l13.2-1.8l13.2-1.8
						l13.2-1.9l13.2-1.8l13.2-1.9l13.2-1.8l13.2-1.8l13.2-1.8l13.2-1.8l13.1-1.8l13.1-1.8l13.1-1.8l13.1-1.8l0.1,0.1l-263.4,37
						L326,548.7"/>
					<path class="st17" d="M325.8,548.9l263.4-37l0.1,0.1l-263.7,37L325.8,548.9"/>
					<path class="st18" d="M325.6,549l263.7-37c0,0,0.1,0.1,0.1,0.1l-13.2,1.8l-13.2,1.8l-13.2,1.9l-13.2,1.8l-13.2,1.9l-13.2,1.8
						l-13.2,1.9l-13.2,1.9l-13.2,1.9l-13.2,1.9l-13.2,1.9l-13.2,1.8l-13.2,1.9l-13.2,1.9l-13.2,1.9l-13.2,1.8l-13.2,1.9l-13.2,1.8
						l-13.2,1.8l-13.1,1.8L325.6,549"/>
					<path class="st19" d="M325.4,549.2l264-37.1c0,0,0.1,0.1,0.1,0.1l-264.3,37.1L325.4,549.2"/>
					<path class="st21" d="M325.2,549.4l264.3-37.1l0.1,0.1L325,549.5L325.2,549.4"/>
					<path class="st22" d="M325,549.5l264.6-37.2l0.1,0.1l-265,37.2L325,549.5"/>
					<path class="st2" d="M324.7,549.7l265-37.2c0.1,0.2,0.2,0.3,0.1,0.3l-13.3,1.9l-13.3,1.9l0,0l-13.3,1.9l-13.3,1.9l0,0
						l-13.3,1.9l-13.3,1.9l-13.3,1.9l-13.3,1.9l-13.3,1.9l-13.3,1.9l-13.3,1.9l-13.3,1.9l-13.3,1.9l-13.3,1.9l-13.3,1.9l-13.3,1.9
						l0,0l-13.3,1.9l-13.3,1.9l-13.4,1.9l-13.3,1.9l0,0C324,550,324.4,549.9,324.7,549.7"/>
				</g>
			</g>
		</g>
	</g>
	<g>
		<g>
			<defs>
				<path id="SVGID_11_" d="M327.3,547.5c2-2.4,3-4.6,2.4-5l253.7-35.7c1.7,1.2,3.3,2.5,4.8,4L327.3,547.5z"/>
			</defs>
			<clipPath id="SVGID_12_">
				<use xlink:href="#SVGID_11_"  style="overflow:visible;"/>
			</clipPath>
			<g class="st26">
				<g>
					<path class="st5" d="M588.2,510.8l-260.9,36.7l0,0L588.2,510.8L588.2,510.8"/>
					<path class="st27" d="M588.1,510.8l-260.8,36.6l0.2-0.2L588,510.6L588.1,510.8"/>
					<path class="st28" d="M588,510.6l-260.5,36.6l0.1-0.2l260.2-36.6L588,510.6"/>
					<path class="st29" d="M587.8,510.5L327.6,547l0.1-0.2l259.9-36.5L587.8,510.5"/>
					<path class="st30" d="M587.7,510.4l-259.9,36.5l0.1-0.2l259.6-36.5L587.7,510.4"/>
					<path class="st31" d="M587.5,510.2l-259.6,36.5l0.1-0.1l259.4-36.5L587.5,510.2"/>
					<path class="st32" d="M587.4,510.1L328,546.6c0,0,0.1-0.1,0.1-0.1L587.3,510L587.4,510.1"/>
					<path class="st33" d="M587.3,510l-259.2,36.4l0.1-0.1l259-36.4L587.3,510"/>
					<path class="st34" d="M587.2,509.9l-259,36.4l0.1-0.1l258.8-36.4L587.2,509.9"/>
					<path class="st35" d="M587.1,509.8l-258.8,36.4l0.1-0.1L587.1,509.8L587.1,509.8"/>
					<path class="st36" d="M587,509.7l-258.6,36.4l0.1-0.1L587,509.7L587,509.7"/>
					<path class="st37" d="M586.9,509.6L328.4,546l0.1-0.1L586.9,509.6L586.9,509.6"/>
					<path class="st38" d="M586.8,509.6l-258.3,36.3l0.1-0.1L586.8,509.6L586.8,509.6"/>
					<path class="st39" d="M586.7,509.5l-258.1,36.3l0.1-0.1L586.7,509.5L586.7,509.5"/>
					<path class="st40" d="M586.6,509.4l-258,36.3l0.1-0.1l257.8-36.2L586.6,509.4"/>
					<path class="st41" d="M586.5,509.3l-257.8,36.2l0.1-0.1l257.7-36.2L586.5,509.3"/>
					<path class="st42" d="M586.4,509.2l-257.7,36.2l0.1-0.1l257.5-36.2L586.4,509.2"/>
					<path class="st43" d="M586.3,509.1l-257.5,36.2c0,0,0-0.1,0.1-0.1L586.2,509L586.3,509.1"/>
					<path class="st44" d="M586.2,509l-257.3,36.2l0.1-0.1l257.1-36.1L586.2,509"/>
					<path class="st45" d="M586.1,508.9L329,545.1l0.1-0.2l256.8-36.1L586.1,508.9"/>
					<path class="st46" d="M585.9,508.8l-256.8,36.1c0.1-0.1,0.1-0.2,0.2-0.4l256.2-36L585.9,508.8"/>
					<path class="st45" d="M585.5,508.5l-256.2,36c0-0.1,0.1-0.1,0.1-0.2l256-36L585.5,508.5"/>
					<path class="st44" d="M585.4,508.3l-256,36l0.1-0.1l255.8-36L585.4,508.3"/>
					<path class="st43" d="M585.3,508.2l-255.8,35.9c0,0,0-0.1,0-0.1l255.7-35.9L585.3,508.2"/>
					<path class="st42" d="M585.2,508.2l-255.7,35.9c0,0,0-0.1,0-0.1L585.2,508.2L585.2,508.2"/>
					<path class="st41" d="M585.1,508.1L329.6,544v-0.1L585.1,508.1L585.1,508.1"/>
					<path class="st40" d="M585,508l-255.4,35.9v-0.1L585,508L585,508"/>
					<path class="st39" d="M585,508l-255.4,35.8v-0.1l255.2-35.9L585,508"/>
					<path class="st38" d="M584.9,507.9l-255.2,35.9v-0.1L584.9,507.9L584.9,507.9"/>
					<path class="st37" d="M584.8,507.9l-255.1,35.9v-0.1l255-35.8L584.8,507.9"/>
					<path class="st36" d="M584.7,507.8l-255,35.8v-0.1L584.7,507.8L584.7,507.8"/>
					<path class="st35" d="M584.7,507.7l-254.9,35.8v-0.1L584.7,507.7L584.7,507.7"/>
					<path class="st34" d="M584.6,507.7l-254.8,35.8c0,0,0-0.1,0-0.1L584.6,507.7L584.6,507.7"/>
					<path class="st33" d="M584.5,507.6l-254.7,35.8v-0.1l254.6-35.8L584.5,507.6"/>
					<path class="st32" d="M584.4,507.5l-254.6,35.8c0,0,0-0.1,0-0.1L584.4,507.5L584.4,507.5"/>
					<path class="st31" d="M584.3,507.5l-254.5,35.8c0,0,0-0.1,0-0.1l254.4-35.8L584.3,507.5"/>
					<path class="st30" d="M584.2,507.4l-254.4,35.8c0,0,0-0.1,0-0.1l254.3-35.7L584.2,507.4"/>
					<path class="st29" d="M584.1,507.3l-254.3,35.7c0,0,0-0.1,0-0.1L584.1,507.3L584.1,507.3"/>
					<path class="st28" d="M584,507.2L329.9,543v-0.1L584,507.2L584,507.2"/>
					<path class="st27" d="M584,507.2l-254.1,35.7v-0.1l254-35.7L584,507.2"/>
					<path class="st5" d="M583.9,507.1l-254,35.7c0,0,0,0,0-0.1L583.9,507.1L583.9,507.1"/>
					<path class="st6" d="M583.8,507.1l-254,35.7l0,0L583.8,507.1L583.8,507.1"/>
					<path class="st7" d="M583.8,507l-253.9,35.7l0,0L583.8,507L583.8,507"/>
					<path class="st8" d="M583.7,507l-253.9,35.7l0,0L583.7,507L583.7,507"/>
					<path class="st9" d="M583.7,507l-253.9,35.7l0,0L583.7,507L583.7,507"/>
					<path class="st10" d="M583.6,506.9l-253.8,35.7l0,0L583.6,506.9L583.6,506.9"/>
					<path class="st11" d="M583.6,506.9l-253.8,35.7l0,0L583.6,506.9L583.6,506.9"/>
					<path class="st12" d="M583.5,506.9l-253.8,35.7l0,0L583.5,506.9L583.5,506.9"/>
					<path class="st13" d="M583.5,506.9l-253.8,35.7l0,0L583.5,506.9L583.5,506.9"/>
					<path class="st14" d="M583.4,506.8l-253.8,35.7l0,0L583.4,506.8L583.4,506.8"/>
					<polyline class="st15" points="583.4,506.8 329.7,542.5 329.6,542.5 583.4,506.8 583.4,506.8 					"/>
				</g>
			</g>
		</g>
	</g>
	<g>
		<g>
			<defs>
				<path id="SVGID_13_" d="M311,543c0.2-89,0.3-178.1,0.5-267.1c0.2-133.6,0.1,0,0.2,0l-0.5,267.5C311.1,543.3,311,543.2,311,543z"
					/>
			</defs>
			<clipPath id="SVGID_14_">
				<use xlink:href="#SVGID_13_"  style="overflow:visible;"/>
			</clipPath>
			<g class="st47">
				<g>
					<path class="st2" d="M311.7,275.9l-0.5,267.5c-0.2-0.1-0.2-0.3-0.2-0.5v-13.3v-13.3l0,0V503v-13.4l0,0v-13.4v-13.4l0,0v-13.4
						v-13.4v-13.4v-13.4l0,0v-13.4v-13.4v-13.4V356v-13.4v-13.4v-13.4v-13.4v-13.4v-13.4c0,0,0.1,0,0.2,0"/>
				</g>
			</g>
		</g>
	</g>
	<g>
		<g>
			<defs>
				<path id="SVGID_15_" d="M311.6,275.9l266-37.4c0.1,0,0.2,0,0.3,0.1l-266.2,37.4C311.7,275.9,311.6,275.9,311.6,275.9z"/>
			</defs>
			<clipPath id="SVGID_16_">
				<use xlink:href="#SVGID_15_"  style="overflow:visible;"/>
			</clipPath>
			<g class="st48">
				<g>
					<path class="st15" d="M578,238.5l-266.3,37.4l0,0L578,238.5L578,238.5"/>
					<path class="st16" d="M577.9,238.5L577.9,238.5l-13.3,1.9l-13.3,1.9l-13.3,1.9l-13.3,1.9l-13.3,1.9l-13.3,1.9l-13.3,1.9
						l-13.3,1.9l-13.3,1.9l-13.3,1.9l-13.3,1.9l-13.3,1.9l-13.3,1.9l-13.3,1.9l-13.3,1.9l-13.3,1.8l-13.3,1.9l-13.3,1.9L325,274
						l-13.3,1.9l0,0L577.9,238.5L577.9,238.5"/>
					<path class="st17" d="M577.9,238.5l-266.2,37.4l0,0L577.9,238.5L577.9,238.5"/>
					<path class="st18" d="M577.8,238.5l-266.2,37.4l0,0L577.8,238.5L577.8,238.5"/>
					<path class="st19" d="M577.8,238.5l-266.2,37.4l0,0L577.8,238.5L577.8,238.5"/>
					<path class="st21" d="M577.7,238.5l-266.1,37.4l0,0L577.7,238.5L577.7,238.5"/>
					<polyline class="st22" points="577.6,238.5 311.6,275.9 311.6,275.9 324.9,274 338.2,272.1 351.5,270.3 364.8,268.4 
						378.1,266.5 391.4,264.6 404.7,262.8 418,260.9 431.3,259 444.6,257.2 457.9,255.3 471.2,253.4 484.5,251.6 497.8,249.7 
						511.1,247.8 524.4,245.9 537.7,244.1 551,242.2 564.3,240.3 577.6,238.5 577.6,238.5 					"/>
				</g>
			</g>
		</g>
	</g>
	<g>
		<g>
			<defs>
				<path id="SVGID_17_" d="M328.7,286.5c-1.5-1.5-3.1-2.8-4.8-4l266.2-37.4c0.7,0.4-0.4,2.6-2.3,5L328.7,286.5z"/>
			</defs>
			<clipPath id="SVGID_18_">
				<use xlink:href="#SVGID_17_"  style="overflow:visible;"/>
			</clipPath>
			<g class="st49">
				<g>
					<path class="st5" d="M587.8,250.1l-259.1,36.4l0,0L587.8,250.1L587.8,250.1"/>
					<path class="st27" d="M587.8,250.1l-259.2,36.4l-0.2-0.1L588,249.9L587.8,250.1"/>
					<path class="st28" d="M588,249.9l-259.5,36.5l-0.1-0.1l259.8-36.5L588,249.9"/>
					<path class="st29" d="M588.1,249.7l-259.8,36.5l-0.1-0.1l260-36.6C588.2,249.6,588.1,249.6,588.1,249.7"/>
					<path class="st30" d="M588.2,249.5l-260,36.6L328,286l260.3-36.6L588.2,249.5"/>
					<path class="st31" d="M588.3,249.4L328,286l-0.1-0.1l260.5-36.6L588.3,249.4"/>
					<path class="st32" d="M588.5,249.2l-260.5,36.6l-0.1-0.1l260.8-36.6L588.5,249.2"/>
					<path class="st33" d="M588.6,249.1l-260.8,36.6l-0.1-0.1l261-36.7L588.6,249.1"/>
					<path class="st34" d="M588.7,249l-261,36.6l-0.1-0.1l261.1-36.7C588.7,248.9,588.7,248.9,588.7,249"/>
					<path class="st35" d="M588.7,248.9l-261.1,36.7l-0.1-0.1l261.3-36.7L588.7,248.9"/>
					<path class="st36" d="M588.8,248.8l-261.3,36.7l-0.1-0.1l261.5-36.8C588.9,248.7,588.8,248.7,588.8,248.8"/>
					<path class="st37" d="M588.9,248.6l-261.5,36.8l-0.1-0.1L589,248.5L588.9,248.6"/>
					<path class="st38" d="M589,248.5l-261.7,36.8l-0.1-0.1L589,248.4V248.5"/>
					<path class="st39" d="M589,248.4l-261.8,36.8l-0.1-0.1l262-36.8L589,248.4"/>
					<path class="st40" d="M589.1,248.3l-262,36.8l-0.1-0.1l262.1-36.8L589.1,248.3"/>
					<path class="st41" d="M589.2,248.2L327,285l-0.1-0.1l262.3-36.9C589.2,248.1,589.2,248.2,589.2,248.2"/>
					<path class="st42" d="M589.2,248.1L326.9,285l-0.1-0.1L589.3,248L589.2,248.1"/>
					<path class="st43" d="M589.3,248l-262.5,36.9l-0.1-0.1l262.7-36.9L589.3,248"/>
					<path class="st44" d="M589.4,247.9l-262.7,36.9l-0.1-0.1l262.9-36.9L589.4,247.9"/>
					<path class="st45" d="M589.5,247.7l-262.9,36.9l-0.2-0.2l263.2-37L589.5,247.7"/>
					<path class="st46" d="M589.6,247.5l-263.2,37l-0.3-0.3l263.8-37.1L589.6,247.5"/>
					<path class="st45" d="M589.8,247.1L326,284.2l-0.1-0.1l264-37.1L589.8,247.1"/>
					<path class="st44" d="M589.9,247l-264,37.1l-0.1-0.1l264.2-37.1L589.9,247"/>
					<path class="st43" d="M589.9,246.8L325.8,284l-0.1-0.1L589.9,246.8L589.9,246.8"/>
					<path class="st42" d="M590,246.8l-264.3,37.1l-0.1-0.1L590,246.8L590,246.8"/>
					<path class="st41" d="M590,246.7l-264.4,37.2l-0.1-0.1L590,246.7L590,246.7"/>
					<path class="st40" d="M590,246.6l-264.5,37.2l-0.1-0.1L590,246.6L590,246.6"/>
					<path class="st39" d="M590.1,246.5l-264.6,37.2l-0.1-0.1L590.1,246.5L590.1,246.5"/>
					<path class="st38" d="M590.1,246.4l-264.7,37.2l-0.1-0.1L590.1,246.4L590.1,246.4"/>
					<path class="st37" d="M590.1,246.4l-264.8,37.2l-0.1-0.1L590.1,246.4L590.1,246.4"/>
					<path class="st36" d="M590.2,246.3l-264.9,37.2l-0.1-0.1L590.2,246.3L590.2,246.3"/>
					<path class="st35" d="M590.2,246.2l-265,37.3l-0.1-0.1L590.2,246.2L590.2,246.2"/>
					<path class="st34" d="M590.2,246.1l-265.1,37.3l-0.1-0.1L590.2,246.1L590.2,246.1"/>
					<path class="st33" d="M590.2,246.1L325,283.3l-0.1-0.1L590.2,246.1C590.3,246,590.3,246.1,590.2,246.1"/>
					<path class="st32" d="M590.3,246l-265.3,37.3l-0.1-0.1l265.5-37.3C590.3,245.9,590.3,245.9,590.3,246"/>
					<path class="st31" d="M590.3,245.9l-265.5,37.3l-0.1-0.1L590.3,245.9C590.3,245.8,590.3,245.9,590.3,245.9"/>
					<path class="st30" d="M590.3,245.8l-265.6,37.3l-0.1-0.1L590.3,245.8C590.3,245.7,590.3,245.8,590.3,245.8"/>
					<path class="st29" d="M590.3,245.7L324.6,283l-0.1-0.1L590.3,245.7L590.3,245.7"/>
					<path class="st28" d="M590.3,245.6L324.5,283l-0.1-0.1L590.3,245.6L590.3,245.6"/>
					<path class="st27" d="M590.3,245.6l-265.8,37.4l-0.1,0L590.3,245.6L590.3,245.6"/>
					<path class="st5" d="M590.3,245.5l-265.9,37.4l-0.1,0L590.3,245.5C590.3,245.5,590.3,245.5,590.3,245.5"/>
					<path class="st6" d="M590.3,245.4l-266,37.4h-0.1L590.3,245.4C590.2,245.4,590.2,245.5,590.3,245.4"/>
					<path class="st7" d="M590.3,245.4l-266,37.4h-0.1L590.3,245.4L590.3,245.4"/>
					<path class="st8" d="M590.3,245.4l-266.1,37.4l0,0L590.3,245.4L590.3,245.4"/>
					<path class="st9" d="M590.3,245.3l-266.1,37.4h0L590.3,245.3L590.3,245.3"/>
					<path class="st10" d="M590.2,245.3l-266.1,37.4l0,0L590.2,245.3L590.2,245.3"/>
					<path class="st11" d="M590.2,245.2l-266.2,37.4h0L590.2,245.2L590.2,245.2"/>
					<path class="st12" d="M590.2,245.2L324,282.6l0,0L590.2,245.2L590.2,245.2"/>
					<path class="st13" d="M590.2,245.2L324,282.6l0,0L590.2,245.2L590.2,245.2"/>
					<path class="st14" d="M590.2,245.1l-266.2,37.4l0,0L590.2,245.1L590.2,245.1"/>
					<polyline class="st15" points="590.1,245.1 323.9,282.5 323.9,282.5 590.1,245.1 590.1,245.1 					"/>
				</g>
			</g>
		</g>
	</g>
	<g>
		<g>
			<defs>
				<path id="SVGID_19_" d="M584.2,252.8l-38.1,5.4l-12.7,1.8l-50.8,7.1c-7.6,1.1-17.7,3-25.4,3.6c-3.8,0.3-8.9,1.2-12.7,1.8
					l-38.1,5.4l-12.7,1.8l-38.1,5.4l-12.7,1.8c-3.8,0.5-8.9,1.8-12.7,1.8c0.2,0-0.8-1.1-2.5-2.8l260.9-36.7
					C586.9,251.1,585.1,252.6,584.2,252.8z"/>
			</defs>
			<clipPath id="SVGID_20_">
				<use xlink:href="#SVGID_19_"  style="overflow:visible;"/>
			</clipPath>
			<g class="st50">
				<g>
					<path class="st5" d="M327.8,285.7L588.7,249l-0.1,0.2l-260.6,36.6L327.8,285.7"/>
					<path class="st6" d="M327.9,285.8l260.6-36.6l-0.2,0.2L328.1,286L327.9,285.8"/>
					<path class="st7" d="M328.1,286l260.2-36.6c-0.1,0.1-0.1,0.1-0.2,0.2l-259.8,36.5L328.1,286"/>
					<path class="st8" d="M328.3,286.2l259.8-36.5l-0.2,0.2l-259.4,36.5L328.3,286.2"/>
					<path class="st9" d="M328.5,286.4l259.4-36.5l-0.2,0.2l0,0l-13.1,1.9l-13,1.8l-13,1.8l-13,1.8l-12.9,1.8l-12.9,1.8l-12.9,1.8
						l-12.9,1.8l-12.9,1.8l-12.9,1.8l-12.9,1.8l-12.9,1.9l-12.9,1.8l-12.9,1.8l-12.9,1.8l-13,1.8l-13,1.8l-13,1.8l-13,1.8l-13.1,1.8
						L328.5,286.4"/>
					<path class="st10" d="M328.6,286.5l259-36.4l-0.2,0.2l-258.7,36.3L328.6,286.5"/>
					<path class="st11" d="M328.8,286.7l258.7-36.4l-0.2,0.2L329,286.9L328.8,286.7"/>
					<path class="st12" d="M329,286.9l258.3-36.3l-0.2,0.2L329.1,287L329,286.9"/>
					<path class="st13" d="M329.1,287l257.9-36.2l-0.2,0.2l0,0l-13,1.8l-12.9,1.8l-12.9,1.8l-12.9,1.8l-12.9,1.8l-12.9,1.8
						l-12.9,1.8l-12.8,1.8l-12.8,1.8l-12.8,1.8l-12.8,1.8l-12.8,1.8l-12.8,1.8l-12.9,1.8l-12.9,1.8l-12.9,1.8l-12.9,1.8l-12.9,1.8
						l-12.9,1.8l-13,1.8L329.1,287"/>
					<path class="st14" d="M329.3,287.2L586.9,251c-0.1,0.1-0.1,0.1-0.2,0.2l-257.2,36.1C329.4,287.3,329.3,287.2,329.3,287.2"/>
					<path class="st15" d="M329.4,287.3L329.4,287.3l12.9-1.8l12.9-1.8l12.9-1.8l12.8-1.8l12.9-1.8l12.8-1.8l12.8-1.8l12.8-1.8
						l12.8-1.8l12.8-1.8l12.8-1.8l12.8-1.8l12.8-1.8l12.8-1.8l12.8-1.8l12.9-1.8l12.9-1.8l12.9-1.8l13-1.8l12.9-1.8l-0.2,0.2
						l-256.9,36.1C329.5,287.4,329.5,287.4,329.4,287.3"/>
					<path class="st16" d="M329.6,287.5l256.9-36.1l-0.2,0.2l-256.6,36.1L329.6,287.5"/>
					<path class="st17" d="M329.7,287.6l12.9-1.8l12.9-1.8l12.9-1.8l12.8-1.8l12.8-1.8l12.8-1.8l12.8-1.8l12.8-1.8l12.8-1.8
						l12.8-1.8l12.8-1.8l12.8-1.8l12.8-1.8l12.8-1.8l12.8-1.8l12.8-1.8l12.8-1.8l12.9-1.8l12.9-1.8l12.9-1.8l-0.2,0.2l-256.3,36
						L329.7,287.6"/>
					<path class="st18" d="M329.8,287.7l256.3-36l-0.2,0.2l-256,36L329.8,287.7"/>
					<path class="st19" d="M329.9,287.8l256-36l-0.2,0.2L330,288L329.9,287.8"/>
					<path class="st21" d="M330,288l255.6-36l-0.2,0.2l-255.3,35.9L330,288"/>
					<path class="st22" d="M330.1,288.1l255.3-35.9l-0.3,0.2l-255,35.8L330.1,288.1"/>
					<path class="st2" d="M330.2,288.2l255-35.8c-0.3,0.2-0.6,0.3-0.9,0.4l0,0l-12.7,1.8l-12.7,1.8l-12.7,1.8l-12.7,1.8l0,0
						l-12.7,1.8l-12.8,1.8l-12.7,1.8l-12.7,1.8l-12.6,1.8l-12.7,1.8l0,0l-12.7,1.8l-12.7,1.8l-12.7,1.8l-12.7,1.8l-12.7,1.8
						l-12.7,1.8l0,0l-12.7,1.8l-12.7,1.8l-12.7,1.8l-12.7,1.8l0,0C330.3,288.5,330.3,288.4,330.2,288.2"/>
				</g>
			</g>
		</g>
	</g>
	<g>
		<g>
			<defs>
				<path id="SVGID_21_" d="M330.3,288.4c-0.1,42.4-0.1,84.8-0.2,127.2c0,7.6,0,17.8,0,25.4c-0.1,29.7-0.1,59.4-0.2,89.1
					c0,3.8,0,8.9,0,12.7c0,0.8-1,2.7-2.5,4.5l0.5-261.8C328.8,286.5,329.6,287.4,330.3,288.4z"/>
			</defs>
			<clipPath id="SVGID_22_">
				<use xlink:href="#SVGID_21_"  style="overflow:visible;"/>
			</clipPath>
			<g class="st51">
				<g>
					<path class="st5" d="M327.3,547.5l0.5-261.8l0.8,0.8l-0.5,259.9C327.9,546.8,327.6,547.1,327.3,547.5"/>
					<path class="st6" d="M328.1,546.4l0.5-259.9l0.5,0.5l-0.5,258.6C328.5,545.9,328.3,546.2,328.1,546.4"/>
					<path class="st7" d="M328.6,545.7l0.5-258.7l0.3,0.3L329,545.1C328.9,545.3,328.8,545.5,328.6,545.7"/>
					<path class="st8" d="M329,545.1l0.5-257.8l0.2,0.2v12.9v12.9v12.9v12.9V352v12.8v12.8v12.8v12.8v12.8V429v12.8v12.8v12.8v12.8
						v12.9V506v12.9v12.9v12.9l-0.2,0.4"/>
					<path class="st9" d="M329.2,544.7l0.5-257.1l0.2,0.2l-0.5,256.6L329.2,544.7"/>
					<path class="st10" d="M329.4,544.4L329.4,544.4v-12.9v-12.9v-12.9V493v-12.8v-12.8v-12.8v-12.8v-12.8v-12.8v-12.8v-12.8v-12.8
						v-12.8v-12.8v-12.8v-12.8v-12.9v-12.9v-12.9l0.1,0.1L329,544.2c0,0.1-0.1,0.2-0.1,0.3"/>
					<path class="st11" d="M329.5,544.2l0.5-256.2l0.1,0.1l-0.5,255.9L329.5,544.2"/>
					<path class="st12" d="M329.6,543.9l0.5-255.9l0.1,0.1l-0.5,255.6C329.7,543.8,329.6,543.8,329.6,543.9"/>
					<path class="st13" d="M329.7,543.8l0.5-255.6l0.1,0.1l-0.5,255.4L329.7,543.8"/>
					<path class="st14" d="M329.7,543.6l0.5-255.4c0,0,0,0,0,0.1l0,0V301v12.8v12.8v12.8v12.8v12.8v12.8v12.8v12.8v12.7v12.8v12.7
						v12.8v12.8v12.8v12.8v12.8v12.8v12.8v12.8c0,0,0,0.1,0,0.2"/>
					<path class="st15" d="M329.8,543.4L329.8,543.4v-12.8v-12.8v-12.8v-12.8v-12.8v-12.8v-12.8v-12.8v-12.7v-12.8v-12.7v-12.8
						v-12.8v-12.8v-12.8v-12.8v-12.8v-12.8V301v-12.8v0l-0.5,255v0.1"/>
					<path class="st16" d="M329.8,543.3l0.5-255c0,0,0,0,0,0l-0.5,254.8L329.8,543.3"/>
					<path class="st17" d="M329.8,543.2l0.5-254.8l0,0L329.8,543C329.8,543,329.8,543.1,329.8,543.2"/>
					<path class="st18" d="M329.8,543l0.5-254.6l0,0l-0.5,254.5C329.9,542.9,329.9,542.9,329.8,543"/>
					<path class="st19" d="M329.9,542.9l0.5-254.5l0,0v12.7v12.7l0,0v12.7v12.7v12.7v12.7v12.7v12.7v12.7v12.7v12.7v12.7v12.7v12.7
						v12.7L330,492v12.7v12.7v12.7v12.7l0,0"/>
				</g>
			</g>
		</g>
	</g>
	<g>
		<g>
			<defs>
				<path id="SVGID_23_" d="M328.2,546.4c-2,2.4-4.1,4-4.8,3.7l0.5-267.5c1.7,1.2,3.3,2.5,4.8,4L328.2,546.4z"/>
			</defs>
			<clipPath id="SVGID_24_">
				<use xlink:href="#SVGID_23_"  style="overflow:visible;"/>
			</clipPath>
			<g class="st52">
				<g>
					<path class="st5" d="M328.7,286.5l-0.5,259.8c-0.5,0.6-0.9,1.1-1.4,1.5l0.5-262.6C327.8,285.7,328.2,286.1,328.7,286.5"/>
					<path class="st6" d="M327.3,285.3l-0.5,262.6c-0.1,0.1-0.3,0.3-0.4,0.4l0.5-263.4L327.3,285.3"/>
					<path class="st7" d="M326.9,284.9l-0.5,263.4l-0.3,0.3l0.5-263.9L326.9,284.9"/>
					<path class="st8" d="M326.6,284.7l-0.5,263.9l-0.3,0.2l0.5-264.4L326.6,284.7"/>
					<path class="st9" d="M326.3,284.4l-0.5,264.4l-0.2,0.2l0.5-264.8L326.3,284.4"/>
					<path class="st10" d="M326.1,284.2L325.6,549l-0.2,0.2l0.5-265.2L326.1,284.2"/>
					<path class="st11" d="M325.9,284l-0.5,265.2l-0.2,0.2l0.5-265.5L325.9,284"/>
					<path class="st12" d="M325.6,283.9l-0.5,265.5l-0.2,0.1l0.5-265.8L325.6,283.9"/>
					<path class="st13" d="M325.5,283.7L325,549.5l-0.2,0.1l0.5-266.1L325.5,283.7"/>
					<path class="st14" d="M325.3,283.6l-0.5,266.1l-0.2,0.1l0.5-266.3L325.3,283.6"/>
					<path class="st15" d="M325.1,283.4l-0.5,266.3l-0.1,0.1l0.5-266.5L325.1,283.4"/>
					<path class="st16" d="M325,283.3l-0.5,266.5l-0.1,0.1l0.5-266.7L325,283.3"/>
					<path class="st17" d="M324.8,283.2l-0.5,266.7l-0.1,0.1l0.5-266.9L324.8,283.2"/>
					<path class="st18" d="M324.7,283.1L324.2,550h-0.1l0.5-267L324.7,283.1"/>
					<path class="st19" d="M324.6,283l-0.5,267H324l0.5-267.2L324.6,283"/>
					<path class="st21" d="M324.4,282.9L324,550.1h-0.1l0.5-267.3L324.4,282.9"/>
					<path class="st22" d="M324.3,282.8l-0.5,267.3h-0.1l0.5-267.4L324.3,282.8"/>
					<path class="st2" d="M324.2,282.7l-0.5,267.4c-0.1,0-0.2,0-0.3,0l0.5-267.5L324.2,282.7"/>
				</g>
			</g>
		</g>
	</g>
	<path class="st53" d="M328.7,286.5l259.1-36.4c-0.2,85.3-0.3,174.5-0.5,259.8l-259.1,36.4C328.4,461,328.5,371.9,328.7,286.5z
		 M588.2,510.8c0.2-88.5,0.3-173.2,0.5-261.8l-260.9,36.7c-0.2,88.5-0.3,173.2-0.5,261.8L588.2,510.8"/>
	<polygon class="st3" points="323.4,550.1 311.2,543.5 311.7,275.9 323.9,282.5 	"/>
	<polygon class="st24" points="323.9,282.5 311.7,275.9 578,238.5 590.1,245.1 	"/>
</g>
<g>
	<polygon class="st54" points="1322,835.3 1293.9,818.7 1507.9,480 1536,496.5 	"/>
	<polygon class="st55" points="1694.3,789.4 1666.2,772.8 1509.1,468 1537.2,484.6 	"/>
	<polygon class="st56" points="1310.6,843.4 1282.5,826.8 1666.2,772.8 1694.3,789.4 	"/>
	<path class="st57" d="M1509.1,468l157.1,304.8l-383.7,53.9L1509.1,468z M1507.9,480l-214,338.8l362.3-50.9L1507.9,480"/>
</g>
<g>
	<g>
		<g>
			<defs>
				<path id="SVGID_25_" d="M661.8,846.7l15.2-23c-8.7,13.2-12.7,29.7-10.2,47.8c6.2,45.2,50.4,83.4,98.5,85l-15.2,23
					c-48.1-1.7-92.3-39.8-98.5-85C649.1,876.4,653,859.9,661.8,846.7z"/>
			</defs>
			<clipPath id="SVGID_26_">
				<use xlink:href="#SVGID_25_"  style="overflow:visible;"/>
			</clipPath>
			<g class="st58">
				<g>
					<path class="st2" d="M661.8,846.7l15.2-23c-0.9,1.3-1.7,2.7-2.5,4l-15.2,23C660.1,849.3,660.9,848,661.8,846.7"/>
					<path class="st22" d="M659.3,850.7l15.2-23c-1.2,2.2-2.3,4.5-3.3,6.8l-15.2,23C657,855.2,658.1,852.9,659.3,850.7"/>
					<path class="st21" d="M656,857.5l15.2-23c-0.8,1.8-1.4,3.6-2,5.5L654,863C654.6,861.1,655.3,859.3,656,857.5"/>
					<path class="st19" d="M654,863l15.2-23c-0.5,1.6-0.9,3.2-1.3,4.9l-15.2,23C653,866.2,653.5,864.6,654,863"/>
					<path class="st18" d="M652.7,867.9l15.2-23c-0.3,1.5-0.6,3-0.9,4.6l-15.2,23C652,871,652.3,869.4,652.7,867.9"/>
					<path class="st17" d="M651.8,872.5l15.2-23c-0.2,1.5-0.4,2.9-0.6,4.4l-15.2,23C651.3,875.4,651.5,873.9,651.8,872.5"/>
					<path class="st16" d="M651.2,876.9l15.2-23c-0.1,1.4-0.2,2.8-0.3,4.3l-15.2,23C650.9,879.7,651,878.3,651.2,876.9"/>
					<path class="st15" d="M650.9,881.2l15.2-23c-0.1,1.4-0.1,2.7,0,4.1l-15.2,23C650.8,883.9,650.8,882.6,650.9,881.2"/>
					<path class="st14" d="M650.8,885.3l15.2-23c0,1.4,0.1,2.8,0.2,4.1l-15.2,23C650.9,888,650.9,886.7,650.8,885.3"/>
					<path class="st13" d="M651,889.4l15.2-23c0.1,1.4,0.2,2.7,0.4,4.1l-15.2,23C651.2,892.1,651.1,890.7,651,889.4"/>
					<path class="st12" d="M651.4,893.5l15.2-23l0.1,1c0.1,1.1,0.3,2.1,0.5,3.2l-15.2,23c-0.2-1.1-0.4-2.1-0.5-3.2
						C651.6,894.2,651.5,893.9,651.4,893.5"/>
					<path class="st11" d="M652.1,897.7l15.2-23c0.2,1.4,0.5,2.8,0.8,4.2l-15.2,23C652.6,900.5,652.3,899.1,652.1,897.7"/>
					<path class="st10" d="M652.9,901.8l15.2-23c0.3,1.4,0.7,2.8,1.1,4.2l-15.2,23C653.6,904.7,653.2,903.3,652.9,901.8"/>
					<path class="st9" d="M654,906.1l15.2-23c0.4,1.5,0.9,2.9,1.4,4.3l-15.2,23C654.9,909,654.4,907.5,654,906.1"/>
					<path class="st8" d="M655.4,910.4l15.2-23c0.5,1.5,1.1,3,1.7,4.4l-15.2,23C656.4,913.3,655.9,911.9,655.4,910.4"/>
					<path class="st7" d="M657,914.8l15.2-23c0.6,1.6,1.3,3.2,2.1,4.7l-15.2,23C658.3,918,657.6,916.4,657,914.8"/>
					<path class="st6" d="M659.1,919.5l15.2-23c0.8,1.7,1.7,3.4,2.6,5.1l-15.2,23C660.8,923,659.9,921.2,659.1,919.5"/>
					<path class="st5" d="M661.7,924.6l15.2-23c1.1,1.9,2.2,3.8,3.4,5.7l-15.2,23C663.9,928.5,662.8,926.6,661.7,924.6"/>
					<path class="st27" d="M665.1,930.3l15.2-23c1.5,2.3,3.1,4.6,4.8,6.8l-15.2,23C668.2,934.9,666.6,932.6,665.1,930.3"/>
					<path class="st28" d="M669.9,937.2l15.2-23c3.1,4.1,6.6,8,10.2,11.6l-15.2,23C676.4,945.2,673,941.3,669.9,937.2"/>
					<path class="st29" d="M680.1,948.8l15.2-23c2.7,2.6,5.5,5.1,8.4,7.4l-15.2,23C685.6,953.8,682.8,951.4,680.1,948.8"/>
					<path class="st28" d="M688.5,956.2l15.2-23c4.3,3.4,8.9,6.5,13.6,9.3l-15.2,23C697.4,962.7,692.8,959.6,688.5,956.2"/>
					<path class="st27" d="M702.1,965.4l15.2-23c2.5,1.4,5,2.8,7.6,4l-15.2,23C707.1,968.2,704.6,966.9,702.1,965.4"/>
					<path class="st5" d="M709.7,969.4l15.2-23c2.1,1,4.2,1.9,6.3,2.8l-15.2,23C713.9,971.3,711.8,970.4,709.7,969.4"/>
					<path class="st6" d="M716,972.2l15.2-23c1.8,0.7,3.7,1.4,5.6,2.1l-15.2,23C719.7,973.6,717.8,972.9,716,972.2"/>
					<path class="st7" d="M721.5,974.2l15.2-23c1.7,0.6,3.4,1.1,5,1.6l-15.2,23C724.8,975.3,723.2,974.8,721.5,974.2"/>
					<path class="st8" d="M726.6,975.8l15.2-23c1.6,0.5,3.2,0.9,4.8,1.2l-15.2,23C729.8,976.7,728.2,976.2,726.6,975.8"/>
					<path class="st9" d="M731.4,977.1l15.2-23c1.5,0.3,3.1,0.7,4.7,1l-15.2,23C734.5,977.8,733,977.5,731.4,977.1"/>
					<path class="st10" d="M736.1,978l15.2-23c1.5,0.3,3,0.5,4.5,0.7l-15.2,23C739.1,978.5,737.6,978.3,736.1,978"/>
					<path class="st11" d="M740.6,978.7l15.2-23c1.5,0.2,3,0.4,4.5,0.5l-15.2,23C743.6,979.1,742.1,979,740.6,978.7"/>
					<path class="st12" d="M745,979.2l15.2-23c1.5,0.1,3,0.2,4.4,0.3l-15.2,23C748,979.5,746.5,979.4,745,979.2"/>
					<path class="st13" d="M749.5,979.5l15.2-23h0.6l-15.2,23L749.5,979.5"/>
				</g>
			</g>
		</g>
	</g>
	<g>
		<g>
			<defs>
				<path id="SVGID_27_" d="M831.1,925.4l-15.2,23c-13.1,19.8-36.9,32.2-65.8,31.1l15.2-23C794.2,957.6,818,945.2,831.1,925.4z"/>
			</defs>
			<clipPath id="SVGID_28_">
				<use xlink:href="#SVGID_27_"  style="overflow:visible;"/>
			</clipPath>
			<g class="st59">
				<g>
					<path class="st13" d="M750.1,979.5l15.2-23c1.3,0,2.5,0.1,3.8,0l-15.2,23C752.6,979.6,751.4,979.6,750.1,979.5"/>
					<path class="st14" d="M753.9,979.6l15.2-23c1.5,0,2.9,0,4.4-0.1l-15.2,23C756.8,979.5,755.4,979.6,753.9,979.6"/>
					<path class="st15" d="M758.3,979.5l15.2-23c1.5-0.1,3-0.2,4.4-0.3l-15.2,23C761.2,979.3,759.7,979.4,758.3,979.5"/>
					<path class="st16" d="M762.7,979.1l15.2-23c1.5-0.2,3-0.4,4.5-0.6l-15.2,23C765.7,978.8,764.1,979,762.7,979.1"/>
					<path class="st17" d="M767.1,978.5l15.2-23c1.5-0.2,3.1-0.5,4.5-0.8l-15.2,23C770.2,978,768.7,978.3,767.1,978.5"/>
					<path class="st18" d="M771.7,977.7l15.2-23c1.6-0.3,3.2-0.8,4.8-1.2l-15.2,23C774.9,976.9,773.3,977.3,771.7,977.7"/>
					<path class="st19" d="M776.5,976.5l15.2-23c1.8-0.5,3.5-1,5.2-1.7l-15.2,23C779.9,975.5,778.2,976,776.5,976.5"/>
					<path class="st21" d="M781.6,974.8l15.2-23c2-0.7,3.8-1.5,5.7-2.3l-15.2,23C785.5,973.4,783.6,974.1,781.6,974.8"/>
					<path class="st22" d="M787.3,972.5l15.2-23c2.3-1,4.5-2.2,6.7-3.5l-15.2,23C791.9,970.3,789.6,971.5,787.3,972.5"/>
					<path class="st2" d="M794.1,969l15.2-23c8.8-5.1,16.2-12.2,21.8-20.6l-15.2,23C810.3,956.9,802.8,963.9,794.1,969"/>
				</g>
			</g>
		</g>
	</g>
	<g>
		<g>
			<defs>
				<path id="SVGID_29_" d="M677,823.7c13.1-19.8,36.9-32.2,65.8-31.2l-15.2,23c-28.9-1-52.7,11.3-65.8,31.2L677,823.7z"/>
			</defs>
			<clipPath id="SVGID_30_">
				<use xlink:href="#SVGID_29_"  style="overflow:visible;"/>
			</clipPath>
			<g class="st60">
				<g>
					<path class="st61" d="M661.8,846.7l15.2-23c5.6-8.5,13.1-15.5,21.8-20.6l-15.2,23C674.9,831.2,667.4,838.2,661.8,846.7"/>
					<path class="st61" d="M683.6,826.1l15.2-23c2.2-1.3,4.4-2.5,6.7-3.5l-15.2,23C688.1,823.6,685.8,824.8,683.6,826.1"/>
					<path class="st62" d="M690.4,822.6l15.2-23c1.9-0.8,3.8-1.6,5.7-2.3l-15.2,23C694.1,820.9,692.2,821.7,690.4,822.6"/>
					<path class="st62" d="M696.1,820.2l15.2-23c1.7-0.6,3.4-1.2,5.2-1.7l-15.2,23C699.5,819.1,697.8,819.6,696.1,820.2"/>
					<path class="st63" d="M701.2,818.6l15.2-23c1.6-0.4,3.2-0.8,4.8-1.2l-15.2,23C704.4,817.8,702.8,818.1,701.2,818.6"/>
					<path class="st63" d="M706,817.4l15.2-23c1.5-0.3,3-0.6,4.5-0.8l-15.2,23C709,816.8,707.5,817.1,706,817.4"/>
					<path class="st64" d="M710.5,816.5l15.2-23c1.5-0.2,3-0.4,4.5-0.6L715,816C713.5,816.2,712,816.3,710.5,816.5"/>
					<path class="st64" d="M715,816l15.2-23c1.5-0.2,2.9-0.3,4.4-0.3l-15.2,23C717.9,815.7,716.5,815.9,715,816"/>
					<path class="st65" d="M719.4,815.6l15.2-23c1.4-0.1,2.9-0.1,4.4-0.1l-15.2,23C722.3,815.5,720.9,815.5,719.4,815.6"/>
					<path class="st65" d="M723.8,815.5l15.2-23c1.2,0,2.5,0,3.8,0l-15.2,23C726.3,815.5,725,815.5,723.8,815.5"/>
				</g>
			</g>
		</g>
	</g>
	<g>
		<g>
			<defs>
				<path id="SVGID_31_" d="M655.9,842.8l15.2-23c14.1-21.3,39.7-34.5,70.8-33.5l-15.2,23C695.6,808.2,670,821.5,655.9,842.8z"/>
			</defs>
			<clipPath id="SVGID_32_">
				<use xlink:href="#SVGID_31_"  style="overflow:visible;"/>
			</clipPath>
			<g class="st66">
				<g>
					<path class="st2" d="M655.9,842.8l15.2-23c6-9.1,14.1-16.6,23.5-22.1l-15.2,23C670,826.1,661.9,833.7,655.9,842.8"/>
					<path class="st22" d="M679.4,820.7l15.2-23c2.3-1.4,4.8-2.6,7.2-3.8l-15.2,23C684.1,818,681.7,819.3,679.4,820.7"/>
					<path class="st21" d="M686.6,816.9l15.2-23c2-0.9,4-1.7,6.1-2.5l-15.2,23C690.6,815.1,688.6,816,686.6,816.9"/>
					<path class="st19" d="M692.7,814.4l15.2-23c1.8-0.7,3.7-1.3,5.6-1.8l-15.2,23C696.4,813.2,694.5,813.8,692.7,814.4"/>
					<path class="st18" d="M698.3,812.6l15.2-23c1.7-0.5,3.4-0.9,5.1-1.3l-15.2,23C701.7,811.7,700,812.1,698.3,812.6"/>
					<path class="st17" d="M703.4,811.3l15.2-23c1.6-0.3,3.2-0.7,4.9-0.9l-15.2,23C706.7,810.7,705,811,703.4,811.3"/>
					<path class="st16" d="M708.3,810.4l15.2-23c1.6-0.2,3.2-0.5,4.8-0.6l-15.2,23C711.5,809.9,709.9,810.1,708.3,810.4"/>
					<path class="st15" d="M713.2,809.8l15.2-23c1.6-0.2,3.1-0.3,4.7-0.4l-15.2,23C716.3,809.5,714.7,809.7,713.2,809.8"/>
					<path class="st14" d="M717.9,809.4l15.2-23c1.6-0.1,3.1-0.1,4.7-0.1l-15.2,23C721,809.3,719.5,809.3,717.9,809.4"/>
					<path class="st13" d="M722.6,809.3l15.2-23c1.3,0,2.7,0,4.1,0.1l-15.2,23C725.3,809.3,724,809.3,722.6,809.3"/>
				</g>
			</g>
		</g>
	</g>
	<g>
		<g>
			<defs>
				<path id="SVGID_33_" d="M742.8,792.6c15,0.6,29.6,4.5,42.9,11.3c-2.9,4.3-5.7,8.7-8.6,13l-2,3l-1.9,2.9l-1.8,2.8
					c-0.3,0.4-0.9,0.8-0.9,1.3c-13.3-6.9-27.9-10.7-42.9-11.3L742.8,792.6z"/>
			</defs>
			<clipPath id="SVGID_34_">
				<use xlink:href="#SVGID_33_"  style="overflow:visible;"/>
			</clipPath>
			<g class="st67">
				<g>
					<path class="st65" d="M727.6,815.5l15.2-23h0.6l-15.2,23L727.6,815.5"/>
					<path class="st68" d="M728.2,815.6l15.2-23c1.5,0.1,3,0.2,4.4,0.3l-15.2,23C731.2,815.8,729.7,815.7,728.2,815.6"/>
					<path class="st68" d="M732.6,815.8l15.2-23c1.5,0.1,3,0.3,4.5,0.5l-15.2,23C735.6,816.1,734.1,816,732.6,815.8"/>
					<path class="st68" d="M737.1,816.3l15.2-23c1.5,0.2,3,0.4,4.5,0.7l-15.2,23C740.1,816.8,738.6,816.5,737.1,816.3"/>
					<path class="st69" d="M741.6,817.1l15.2-23c1.6,0.3,3.1,0.6,4.7,1l-15.2,23C744.7,817.7,743.1,817.4,741.6,817.1"/>
					<path class="st69" d="M746.2,818l15.2-23c1.6,0.4,3.2,0.8,4.8,1.2l-15.2,23C749.5,818.8,747.9,818.4,746.2,818"/>
					<path class="st70" d="M751.1,819.3l15.2-23c1.7,0.5,3.4,1,5.1,1.6l-15.2,23C754.5,820.3,752.8,819.7,751.1,819.3"/>
					<path class="st70" d="M756.1,820.8l15.2-23c1.9,0.6,3.7,1.3,5.6,2.1l-15.2,23C759.9,822.2,758,821.5,756.1,820.8"/>
					<path class="st71" d="M761.7,822.9l15.2-23c2.1,0.8,4.2,1.8,6.3,2.8l-15.2,23C765.9,824.7,763.8,823.8,761.7,822.9"/>
					<path class="st71" d="M768,825.7l15.2-23c2.6,1.2,5.1,2.6,7.6,4l-15.2,23C773.1,828.2,770.6,826.8,768,825.7"/>
				</g>
			</g>
		</g>
	</g>
	<g>
		<g>
			<defs>
				<path id="SVGID_35_" d="M841.3,877.6c2.5,18.1-1.5,34.6-10.2,47.8l-15.2,23c8.7-13.2,12.7-29.7,10.2-47.8
					c-4.3-31.1-26.5-58.8-55.6-73.7l15.2-23C814.8,818.8,837,846.5,841.3,877.6z"/>
			</defs>
			<clipPath id="SVGID_36_">
				<use xlink:href="#SVGID_35_"  style="overflow:visible;"/>
			</clipPath>
			<g class="st72">
				<g>
					<path class="st71" d="M768,825.7l15.2-23c2.6,1.2,5.1,2.6,7.6,4l-15.2,23C773.1,828.2,770.6,826.8,768,825.7"/>
					<path class="st73" d="M775.6,829.7l15.2-23c4.8,2.7,9.3,5.8,13.6,9.3l-15.2,23C784.9,835.5,780.3,832.4,775.6,829.7"/>
					<path class="st73" d="M789.2,838.9l15.2-23c2.9,2.3,5.7,4.8,8.4,7.4l-15.2,23C794.9,843.7,792.1,841.2,789.2,838.9"/>
					<path class="st73" d="M797.6,846.3l15.2-23c3.7,3.6,7.1,7.5,10.2,11.6l-15.2,23C804.7,853.8,801.3,850,797.6,846.3"/>
					<path class="st71" d="M807.8,857.9l15.2-23c1.7,2.2,3.3,4.5,4.8,6.8l-15.2,23C811.1,862.4,809.5,860.1,807.8,857.9"/>
					<path class="st71" d="M812.6,864.8l15.2-23c1.2,1.9,2.3,3.8,3.4,5.7l-15.2,23C814.9,868.5,813.8,866.6,812.6,864.8"/>
					<path class="st70" d="M816,870.5l15.2-23c0.9,1.7,1.8,3.4,2.6,5.1l-15.2,23C817.8,873.8,816.9,872.1,816,870.5"/>
					<path class="st70" d="M818.6,875.6l15.2-23c0.7,1.6,1.4,3.1,2.1,4.7l-15.2,23C820,878.7,819.3,877.1,818.6,875.6"/>
					<path class="st69" d="M820.7,880.3l15.2-23c0.6,1.5,1.1,2.9,1.7,4.4l-15.2,23C821.8,883.2,821.3,881.8,820.7,880.3"/>
					<path class="st69" d="M822.3,884.7l15.2-23c0.5,1.4,0.9,2.9,1.4,4.3l-15.2,23C823.3,887.6,822.8,886.1,822.3,884.7"/>
					<path class="st68" d="M823.7,889l15.2-23c0.4,1.4,0.8,2.8,1.1,4.2l-15.2,23C824.4,891.8,824.1,890.4,823.7,889"/>
					<path class="st68" d="M824.8,893.2l15.2-23c0.3,1.4,0.6,2.8,0.8,4.2l-15.2,23C825.4,896,825.1,894.6,824.8,893.2"/>
					<path class="st68" d="M825.6,897.4l15.2-23c0.2,1.1,0.4,2.1,0.5,3.2l0.1,1l-15.2,23c0-0.3-0.1-0.6-0.1-1
						C826,899.5,825.8,898.5,825.6,897.4"/>
					<path class="st65" d="M826.2,901.5l15.2-23c0.2,1.4,0.3,2.8,0.4,4.1l-15.2,23C826.6,904.3,826.4,902.9,826.2,901.5"/>
					<path class="st65" d="M826.7,905.7l15.2-23c0.1,1.4,0.2,2.8,0.2,4.1l-15.2,23C826.8,908.4,826.8,907.1,826.7,905.7"/>
					<path class="st64" d="M826.8,909.8l15.2-23c0,1.4,0,2.8,0,4.1l-15.2,23C826.9,912.6,826.9,911.2,826.8,909.8"/>
					<path class="st64" d="M826.8,913.9L842,891c0,1.4-0.2,2.9-0.3,4.3l-15.2,23C826.7,916.9,826.8,915.4,826.8,913.9"/>
					<path class="st63" d="M826.5,918.2l15.2-23c-0.1,1.5-0.3,3-0.6,4.4l-15.2,23C826.2,921.1,826.4,919.7,826.5,918.2"/>
					<path class="st63" d="M825.9,922.6l15.2-23c-0.2,1.5-0.5,3.1-0.9,4.6l-15.2,23C825.4,925.7,825.7,924.1,825.9,922.6"/>
					<path class="st62" d="M825,927.2l15.2-23c-0.4,1.7-0.8,3.3-1.3,4.9L823.7,932C824.2,930.4,824.6,928.8,825,927.2"/>
					<path class="st62" d="M823.7,932l15.2-23c-0.6,1.9-1.3,3.7-2,5.5l-15.2,23C822.5,935.8,823.1,933.9,823.7,932"/>
					<path class="st61" d="M821.7,937.6l15.2-23c-1,2.3-2.1,4.6-3.3,6.8l-15.2,23C819.6,942.2,820.7,939.9,821.7,937.6"/>
					<path class="st61" d="M818.4,944.4l15.2-23c-0.8,1.4-1.6,2.7-2.5,4l-15.2,23C816.8,947,817.6,945.7,818.4,944.4"/>
				</g>
			</g>
		</g>
	</g>
	<g>
		<g>
			<defs>
				<path id="SVGID_37_" d="M836.9,929.3l-15.2,23c9.4-14.2,13.7-32,11-51.5c-6.7-48.7-54.2-89.7-106-91.5l15.2-23
					c51.8,1.8,99.3,42.8,106,91.5C850.6,897.4,846.3,915.1,836.9,929.3z"/>
			</defs>
			<clipPath id="SVGID_38_">
				<use xlink:href="#SVGID_37_"  style="overflow:visible;"/>
			</clipPath>
			<g class="st74">
				<g>
					<path class="st13" d="M726.7,809.3l15.2-23h0.7l-15.2,23H726.7"/>
					<path class="st12" d="M727.4,809.4l15.2-23c1.6,0.1,3.2,0.2,4.8,0.3l-15.2,23C730.6,809.5,729,809.4,727.4,809.4"/>
					<path class="st11" d="M732.2,809.7l15.2-23c1.6,0.1,3.2,0.3,4.8,0.5l-15.2,23C735.4,810,733.8,809.8,732.2,809.7"/>
					<path class="st10" d="M737,810.2l15.2-23c1.6,0.2,3.2,0.5,4.8,0.8l-15.2,23C740.2,810.7,738.6,810.4,737,810.2"/>
					<path class="st9" d="M741.8,811l15.2-23c1.7,0.3,3.4,0.7,5,1l-15.2,23C745.2,811.6,743.5,811.3,741.8,811"/>
					<path class="st8" d="M746.9,812l15.2-23c1.8,0.4,3.5,0.8,5.2,1.3l-15.2,23C750.4,812.9,748.6,812.4,746.9,812"/>
					<path class="st7" d="M752.1,813.3l15.2-23c1.8,0.5,3.7,1.1,5.5,1.7l-15.2,23C755.7,814.4,753.9,813.9,752.1,813.3"/>
					<path class="st6" d="M757.5,815l15.2-23c2,0.7,4,1.4,6,2.2l-15.2,23C761.5,816.4,759.5,815.7,757.5,815"/>
					<path class="st5" d="M763.5,817.3l15.2-23c2.3,0.9,4.5,1.9,6.8,3l-15.2,23C768,819.2,765.8,818.2,763.5,817.3"/>
					<path class="st27" d="M770.3,820.2l15.2-23c2.8,1.3,5.5,2.8,8.2,4.3l-15.2,23C775.8,822.9,773,821.5,770.3,820.2"/>
					<path class="st28" d="M778.4,824.5l15.2-23c5.1,2.9,10,6.3,14.6,9.9l-15.2,23C788.4,830.8,783.5,827.5,778.4,824.5"/>
					<path class="st29" d="M793,834.5l15.2-23c3.1,2.5,6.1,5.1,9,7.9l-15.2,23C799.1,839.6,796.1,837,793,834.5"/>
					<path class="st28" d="M802,842.4l15.2-23c4,3.9,7.6,8,11,12.4l-15.2,23C809.6,850.4,806,846.3,802,842.4"/>
					<path class="st27" d="M813,854.8l15.2-23c1.8,2.4,3.5,4.8,5.2,7.3l-15.2,23C816.5,859.7,814.8,857.2,813,854.8"/>
					<path class="st5" d="M818.2,862.2l15.2-23c1.3,2,2.5,4,3.6,6.1l-15.2,23C820.7,866.2,819.5,864.2,818.2,862.2"/>
					<path class="st6" d="M821.8,868.3l15.2-23c1,1.8,1.9,3.6,2.8,5.5l-15.2,23C823.7,872,822.8,870.1,821.8,868.3"/>
					<path class="st7" d="M824.6,873.8l15.2-23c0.8,1.7,1.5,3.4,2.2,5.1l-15.2,23C826.2,877.2,825.4,875.5,824.6,873.8"/>
					<path class="st8" d="M826.8,878.9l15.2-23c0.6,1.6,1.2,3.2,1.8,4.8l-15.2,23C828.1,882.1,827.5,880.5,826.8,878.9"/>
					<path class="st9" d="M828.6,883.7l15.2-23c0.5,1.5,1,3.1,1.5,4.7l-15.2,23C829.6,886.8,829.1,885.2,828.6,883.7"/>
					<path class="st10" d="M830.1,888.3l15.2-23c0.4,1.5,0.8,3,1.2,4.5l-15.2,23C830.9,891.3,830.5,889.9,830.1,888.3"/>
					<path class="st11" d="M831.3,892.9l15.2-23c0.3,1.5,0.7,3,0.9,4.5l-15.2,23C831.9,895.8,831.6,894.3,831.3,892.9"/>
					<path class="st12" d="M832.2,897.4l15.2-23c0.2,1.2,0.4,2.3,0.5,3.5c0,0.3,0.1,0.7,0.1,1l-15.2,23c0-0.3-0.1-0.7-0.1-1
						C832.6,899.7,832.4,898.5,832.2,897.4"/>
					<path class="st13" d="M832.9,901.9l15.2-23c0.2,1.5,0.3,3,0.4,4.5l-15.2,23C833.2,904.8,833,903.3,832.9,901.9"/>
					<path class="st14" d="M833.3,906.3l15.2-23c0.1,1.5,0.2,3,0.2,4.5l-15.2,23C833.5,909.3,833.4,907.8,833.3,906.3"/>
					<path class="st15" d="M833.5,910.8l15.2-23c0,1.5,0,3,0,4.5l-15.2,23C833.6,913.8,833.6,912.2,833.5,910.8"/>
					<path class="st16" d="M833.5,915.2l15.2-23c-0.1,1.5-0.2,3.1-0.3,4.6l-15.2,23C833.3,918.3,833.4,916.8,833.5,915.2"/>
					<path class="st17" d="M833.2,919.8l15.2-23c-0.2,1.6-0.4,3.2-0.6,4.7l-15.2,23C832.8,923,833,921.4,833.2,919.8"/>
					<path class="st18" d="M832.5,924.6l15.2-23c-0.3,1.7-0.6,3.3-1,4.9l-15.2,23C831.9,927.9,832.2,926.2,832.5,924.6"/>
					<path class="st19" d="M831.6,929.5l15.2-23c-0.4,1.8-0.9,3.5-1.4,5.3l-15.2,23C830.7,933,831.1,931.2,831.6,929.5"/>
					<path class="st21" d="M830.1,934.7l15.2-23c-0.6,2-1.4,4-2.2,6L828,940.7C828.8,938.7,829.5,936.8,830.1,934.7"/>
					<path class="st22" d="M828,940.7l15.2-23c-1,2.5-2.2,4.9-3.5,7.3l-15.2,23C825.7,945.6,826.9,943.2,828,940.7"/>
					<path class="st2" d="M824.4,948l15.2-23c-0.8,1.5-1.7,2.9-2.7,4.3l-15.2,23C822.7,950.9,823.6,949.4,824.4,948"/>
				</g>
			</g>
		</g>
	</g>
	<path class="st75" d="M726.7,809.3c51.9,1.8,99.3,42.8,106,91.5s-29.9,86.7-81.7,84.9s-99.3-42.8-106-91.5S674.9,807.5,726.7,809.3
		z M750.1,979.5c48.1,1.7,82.2-33.7,76-79s-50.4-83.4-98.5-85s-82.2,33.7-76,79S702,977.9,750.1,979.5"/>
	<path class="st64" d="M727.6,815.5c48.1,1.7,92.3,39.8,98.5,85s-27.9,80.6-76,79s-92.3-39.8-98.5-85S679.5,813.9,727.6,815.5z"/>
</g>
<g>
	<polygon class="st76" points="1020.1,136.9 1061.2,113.5 1259.9,337.5 1218.8,360.8 	"/>
	<polygon class="st77" points="1218.8,360.8 1259.9,337.5 1260.2,341.8 1219,365.1 	"/>
	<polygon class="st56" points="1020.1,136.9 1218.8,360.8 1219,365.1 1020.3,141.1 	"/>
</g>
<g>
	<polygon class="st56" points="1036.3,368.5 1005.4,341.8 1003.2,338.3 1034.1,365 	"/>
	<polygon class="st7" points="1034.1,365 1003.2,338.3 1243.9,110.1 1274.8,136.8 	"/>
	<polygon class="st78" points="1274.8,136.8 1277,140.3 1036.3,368.5 1034.1,365 	"/>
</g>
</svg>
