<svg id="Layer_1" data-name="Layer 1" xmlns="http://www.w3.org/2000/svg" xmlns:xlink="http://www.w3.org/1999/xlink" viewBox="0 0 1920 1080"><defs><clipPath id="clip-path"><path d="M571,500.16q.13-70,.26-140c0-3.82,0-8.91,0-12.72s0-8.91,0-12.72c0-7.64,0-17.81,0-25.45,0-3.81,0-8.9,0-12.72q0-19.09.07-38.18c0-3.82,0-8.92,0-12.74a.47.47,0,0,0,.2.45l-.47,254.08C571.1,500.12,571,500.11,571,500.16Z" fill="none"/></clipPath><clipPath id="clip-path-2"><path d="M590.31,245.58,590,392.49c0,8,0,18.7,0,26.72s0,18.7,0,26.72,0,18.69-.05,26.71,0,18.69,0,26.7c0,4,0,9.34,0,13.35a14.57,14.57,0,0,0-2.54-2.72l.48-259.84C589.33,248.23,590.31,246.42,590.31,245.58Z" fill="none"/></clipPath><clipPath id="clip-path-3"><path d="M588.16,510.81a39.28,39.28,0,0,0-4.77-4l.48-254.08c.67.37,2.81-1.28,4.78-3.68Z" fill="none"/></clipPath><clipPath id="clip-path-4"><path d="M317.15,535.81l253.91-35.68a.46.46,0,0,1,.18.07L317.49,535.86A.6.6,0,0,0,317.15,535.81Z" fill="none"/></clipPath><clipPath id="clip-path-5"><path d="M589.79,512.71l-133,18.7L416.85,537l-13.3,1.87-53.21,7.48c-8,1.12-18.56,3.17-26.6,3.74.9-.13,2.74-1.65,4.45-3.73L587.28,510C589,511.57,590,512.69,589.79,512.71Z" fill="none"/></clipPath><clipPath id="clip-path-6"><path d="M327.3,547.47c2-2.39,3-4.63,2.35-5l253.74-35.66a39.28,39.28,0,0,1,4.77,4Z" fill="none"/></clipPath><clipPath id="clip-path-7"><path d="M311.05,543q.24-133.54.49-267.11s.07,0,.2,0l-.49,267.52A.44.44,0,0,1,311.05,543Z" fill="none"/></clipPath><clipPath id="clip-path-8"><path d="M311.57,275.86l266.05-37.39a.5.5,0,0,1,.33.05L311.74,275.93A.39.39,0,0,0,311.57,275.86Z" fill="none"/></clipPath><clipPath id="clip-path-9"><path d="M328.67,286.55a40.49,40.49,0,0,0-4.77-4l266.21-37.41c.67.36-.38,2.6-2.35,5Z" fill="none"/></clipPath><clipPath id="clip-path-10"><path d="M584.21,252.77l-38.1,5.36-12.69,1.78-50.78,7.14c-7.62,1.07-17.72,3-25.39,3.57-3.83.26-8.88,1.24-12.69,1.78l-38.08,5.35-12.7,1.79-38.08,5.35L343,286.67c-3.81.54-8.85,1.79-12.7,1.79.2,0-.81-1.15-2.52-2.75l260.87-36.66C586.94,251.13,585.1,252.65,584.21,252.77Z" fill="none"/></clipPath><clipPath id="clip-path-11"><path d="M330.32,288.43q-.1,63.61-.23,127.24c0,7.63,0,17.81,0,25.44q-.09,44.53-.17,89.07c0,3.82,0,8.92,0,12.74,0,.84-1,2.65-2.55,4.55l.48-261.76A14.57,14.57,0,0,1,330.32,288.43Z" fill="none"/></clipPath><clipPath id="clip-path-12"><path d="M328.19,546.38c-2,2.4-4.11,4-4.79,3.68l.5-267.52a40.49,40.49,0,0,1,4.77,4Z" fill="none"/></clipPath><clipPath id="clip-path-13"><path d="M661.77,846.69l15.19-23c-8.74,13.2-12.7,29.72-10.22,47.81,6.21,45.21,50.42,83.37,98.55,85.05L750.1,979.54c-48.12-1.68-92.33-39.83-98.54-85C649.08,876.41,653,859.89,661.77,846.69Z" fill="none"/></clipPath><clipPath id="clip-path-14"><path d="M831.09,925.44l-15.18,23c-13.1,19.8-36.93,32.15-65.81,31.14l15.19-22.95C794.17,957.6,818,945.25,831.09,925.44Z" fill="none"/></clipPath><clipPath id="clip-path-15"><path d="M677,823.74c13.1-19.81,36.93-32.17,65.81-31.16l-15.18,23c-28.88-1-52.71,11.34-65.81,31.16Z" fill="none"/></clipPath><clipPath id="clip-path-16"><path d="M655.92,842.78l15.18-23c14.08-21.29,39.7-34.53,70.81-33.45l-15.19,23C695.62,808.25,670,821.49,655.92,842.78Z" fill="none"/></clipPath><clipPath id="clip-path-17"><path d="M742.76,792.58a102.72,102.72,0,0,1,42.9,11.35q-4.29,6.5-8.59,13l-2,3-1.92,2.9-1.83,2.77c-.26.4-.87.85-.87,1.32a102.76,102.76,0,0,0-42.9-11.35Z" fill="none"/></clipPath><clipPath id="clip-path-18"><path d="M841.31,877.64c2.48,18.08-1.48,34.59-10.21,47.79l-15.19,23c8.73-13.2,12.7-29.71,10.21-47.8-4.27-31.1-26.51-58.85-55.64-73.7l15.18-23C814.79,818.78,837,846.54,841.31,877.64Z" fill="none"/></clipPath><clipPath id="clip-path-19"><path d="M836.94,929.35,821.76,952.3c9.39-14.2,13.65-32,11-51.47-6.69-48.73-54.15-89.69-106-91.5l15.19-23c51.85,1.82,99.31,42.78,106,91.5C850.59,897.36,846.33,915.14,836.94,929.35Z" fill="none"/></clipPath></defs><rect x="0.5" y="0.5" width="1919" height="1079" fill="#171717"/><path d="M1919,1V1079H1V1H1919m1-1H0V1080H1920V0Z"/><g style="isolation:isolate"><g style="isolation:isolate"><g clip-path="url(#clip-path)"><g style="isolation:isolate"><path d="M571.71,246.12l-.47,254.08c-.14-.08-.21-.09-.21,0l0-12.73,0-12.73,0-12.73,0-12.73,0-12.72,0-12.72,0-12.72,0-12.73,0-12.71,0-12.72,0-12.72,0-12.72,0-12.72,0-12.72,0-12.73,0-12.72h0l0-12.73,0-12.72,0-12.73,0-12.74h0a.47.47,0,0,0,.2.45" fill="#008500"/></g></g></g><polygon points="583.39 506.81 571.24 500.19 571.71 246.12 583.87 252.73 583.39 506.81" fill="#008200"/><g style="isolation:isolate"><g clip-path="url(#clip-path-2)"><g style="isolation:isolate"><path d="M587.28,510l.48-259.84q.43-.52.81-1l-.49,261.66-.8-.77" fill="#00db00"/><path d="M588.08,510.74l.49-261.66c.19-.26.37-.52.53-.77l-.48,263-.54-.53" fill="#00d600"/><path d="M588.62,511.27l.48-263c.12-.18.23-.35.33-.52l-.49,263.82-.32-.34" fill="#00d100"/><path d="M588.94,511.61l.49-263.82.23-.4-.49,264.45-.23-.23" fill="#0c0"/><path d="M589.17,511.84l.49-264.45c.06-.1.11-.21.16-.31L589.33,512l-.16-.18" fill="#00c700"/><path d="M589.33,512l.49-264.94.13-.26-.49,265.35-.13-.15" fill="#00c200"/><path d="M589.46,512.17,590,246.82c0-.08.07-.15.1-.22l-.5,265.68-.09-.11" fill="#00bd00"/><path d="M589.55,512.28l.5-265.68c0-.07.05-.13.07-.2l-.49,266-.08-.09" fill="#00b800"/><path d="M589.63,512.37l.49-266a.52.52,0,0,0,.06-.16l-.49,266.21-.06-.08" fill="#00b300"/><path d="M589.69,512.45l.49-266.21a1.42,1.42,0,0,0,.05-.16l-.49,266.44,0-.07" fill="#00ad00"/><path d="M589.74,512.52l.49-266.44c0-.05,0-.09,0-.14l0,13.32,0,13.31,0,13.33,0,13.33,0,13.33,0,13.33,0,13.34,0,13.34,0,13.34,0,13.35,0,13.34,0,13.34,0,13.34,0,13.34,0,13.34,0,13.33,0,13.33,0,13.32,0,13.32,0,13.31,0-.05" fill="#00a800"/><path d="M589.77,512.57l.5-266.63s0-.08,0-.12l-.49,266.8,0,0" fill="#00a300"/><path d="M589.8,512.62l0-13.33,0-13.33,0-13.33,0-13.34,0-13.34,0-13.34,0-13.35,0-13.35,0-13.34,0-13.35,0-13.35,0-13.35,0-13.35,0-13.34,0-13.35,0-13.34,0-13.34,0-13.33,0-13.33,0-13.32s0-.08,0-.12l-.5,267v0" fill="#009e00"/><path d="M589.81,512.65l.5-266.95v-.11l-.49,267.09v0" fill="#090"/><path d="M589.82,512.68l.49-267.09h0l0,13.34,0,13.35,0,13.35,0,13.36,0,13.35,0,13.36,0,13.36,0,13.36,0,13.36,0,13.36,0,13.36,0,13.36,0,13.36,0,13.36,0,13.36,0,13.35,0,13.36,0,13.35,0,13.35,0,13.35h0" fill="#009400"/></g></g></g><g style="isolation:isolate"><g clip-path="url(#clip-path-3)"><g style="isolation:isolate"><path d="M588.65,249.05l-.49,261.76c-.45-.42-.91-.85-1.36-1.25l.48-259c.45-.46.91-1,1.37-1.53" fill="#00db00"/><path d="M587.28,250.58l-.48,259-.42-.37L586.86,251l.42-.4" fill="#00d600"/><path d="M586.86,251l-.48,258.21-.3-.27.47-257.65c.11-.09.21-.19.31-.29" fill="#00d100"/><path d="M586.55,251.27l-.47,257.65-.27-.23.48-257.19.26-.23" fill="#0c0"/><path d="M586.29,251.5l-.48,257.19-.24-.2.48-256.78.24-.21" fill="#00c700"/><path d="M586.05,251.71l-.48,256.78-.22-.19.48-256.42.22-.17" fill="#00c200"/><path d="M585.83,251.88l-.48,256.42-.2-.17L585.62,252l.21-.16" fill="#00bd00"/><path d="M585.62,252l-.47,256.09L585,508l.47-255.79.19-.14" fill="#00b800"/><path d="M585.43,252.18,585,508l-.18-.14.48-255.53.17-.12" fill="#00b300"/><path d="M585.26,252.3l-.48,255.53-.16-.13.47-255.3.17-.1" fill="#00ad00"/><path d="M585.09,252.4l-.47,255.3-.15-.12.47-255.09.15-.09" fill="#00a800"/><path d="M584.94,252.49l-.47,255.09-.14-.11.47-254.91.14-.07" fill="#00a300"/><path d="M584.8,252.56l-.47,254.91-.14-.11.48-254.73.13-.07" fill="#009e00"/><path d="M584.67,252.63l-.48,254.73-.13-.1.48-254.58.13-.05" fill="#090"/><path d="M584.54,252.68l-.48,254.58-.12-.09.47-254.44.13,0" fill="#009400"/><path d="M584.41,252.73l-.47,254.44-.13-.09.47-254.32.13,0" fill="#008f00"/><path d="M584.28,252.76l-.47,254.32-.15-.1.47-254.2.15,0" fill="#008a00"/><path d="M584.13,252.78,583.66,507a1.46,1.46,0,0,0-.27-.17l.48-254.08a.44.44,0,0,0,.26.05" fill="#008500"/></g></g></g><g style="isolation:isolate"><g clip-path="url(#clip-path-4)"><g style="isolation:isolate"><path d="M571.24,500.2,317.49,535.86l0,0,12.69-1.78,12.69-1.78,12.68-1.79,12.69-1.78,12.69-1.78,12.69-1.79,12.68-1.78L419,521.58l12.69-1.79L444.33,518,457,516.23l12.69-1.79,12.69-1.78,12.68-1.78,12.69-1.78,12.69-1.79,12.69-1.78,12.68-1.78L558.52,502l12.69-1.78,0,0" fill="#00a800"/><path d="M571.21,500.18,317.46,535.84h0l253.76-35.67,0,0" fill="#00a300"/><path d="M571.18,500.16,317.42,535.83h-.05l253.77-35.67h0" fill="#009e00"/><path d="M571.14,500.15,317.37,535.82h-.06l253.8-35.67h0" fill="#090"/><path d="M571.11,500.14l-253.8,35.67h-.06l253.84-35.68h0" fill="#009400"/><path d="M571.09,500.13,317.25,535.81h-.09l253.9-35.68h0" fill="#008f00"/><polyline points="571.06 500.13 317.16 535.81 317.15 535.82 317.15 535.82 329.85 534.03 342.55 532.25 355.25 530.46 367.94 528.68 380.64 526.89 393.33 525.11 393.33 525.11 406.03 523.32 418.72 521.54 431.41 519.76 444.11 517.97 456.8 516.19 469.49 514.4 482.19 512.62 494.88 510.84 507.58 509.05 520.27 507.27 532.97 505.48 545.66 503.7 558.36 501.92 571.06 500.13 571.06 500.13" fill="#008a00"/></g></g></g><polygon points="329.65 542.47 317.49 535.86 571.24 500.19 583.39 506.81 329.65 542.47" fill="#00b400"/><g style="isolation:isolate"><g clip-path="url(#clip-path-5)"><g style="isolation:isolate"><path d="M328.19,546.38,587.28,510l.14.13L328,546.55l.15-.17" fill="#00db00"/><path d="M328,546.55,587.42,510.1l.18.17L327.85,546.78l.19-.23" fill="#00d600"/><path d="M327.85,546.78,587.6,510.27l.18.18L327.65,547c.07-.08.14-.15.2-.23" fill="#00d100"/><path d="M327.65,547l260.13-36.56.19.18L327.45,547.24c.06-.08.13-.15.2-.23" fill="#0c0"/><path d="M327.45,547.24,588,510.63c.06.06.12.11.17.17l-260.9,36.67.21-.23" fill="#00c700"/><path d="M327.24,547.47l260.9-36.67.18.17-13,1.82-13,1.83-13,1.83-13.05,1.83-13.07,1.84L510.14,522,497,523.8l-13.11,1.84-13.12,1.85-13.13,1.84-13.13,1.85L431.42,533l-13.11,1.84-13.1,1.84-13.09,1.84-13.07,1.84L366,542.21l-13,1.84-13,1.82-13,1.82.22-.22" fill="#00c200"/><path d="M327,547.69,588.32,511l.16.16L326.82,547.91l.2-.22" fill="#00bd00"/><path d="M326.82,547.91l261.66-36.78.15.16-262,36.82.21-.2" fill="#00b800"/><path d="M326.61,548.11l262-36.82.15.15L326.4,548.31l.21-.2" fill="#00b300"/><path d="M326.4,548.31l262.38-36.87.14.14L326.2,548.5l.2-.19" fill="#00ad00"/><path d="M326.2,548.5l262.72-36.92.13.14h0L576,513.56l-13.1,1.84-13.13,1.84-13.14,1.85-13.16,1.85-13.16,1.85-13.18,1.85-13.19,1.85-13.19,1.86-13.19,1.85-13.19,1.86-13.19,1.85L418,535.76l-13.18,1.86-13.17,1.85-13.16,1.84-13.14,1.85L352.19,545l-13.11,1.84L326,548.69l.2-.19" fill="#00a800"/><path d="M326,548.69h0l13.08-1.84L352.19,545l13.12-1.85,13.14-1.85,13.16-1.84,13.17-1.85L418,535.76l13.18-1.85,13.19-1.85,13.19-1.86,13.19-1.85,13.19-1.86,13.19-1.85,13.18-1.85,13.16-1.85,13.16-1.85,13.14-1.85,13.13-1.84,13.1-1.84,13.09-1.84.12.13-263.38,37,.21-.17" fill="#00a300"/><path d="M325.79,548.86l263.38-37,.12.12L325.59,549l.2-.17" fill="#009e00"/><path d="M325.59,549,589.29,512a.63.63,0,0,0,.1.12l-13.15,1.85-13.17,1.85-13.18,1.86L536.7,519.5l-13.2,1.86-13.22,1.85-13.21,1.86-13.23,1.86-13.22,1.86-13.23,1.86-13.23,1.86-13.22,1.85-13.23,1.86-13.21,1.86-13.22,1.86-13.2,1.85-13.19,1.86-13.18,1.85-13.17,1.85-13.15,1.85.2-.17" fill="#090"/><path d="M325.39,549.2l264-37.11a.65.65,0,0,0,.11.12L325.17,549.36l.22-.16" fill="#009400"/><path d="M325.17,549.36,589.5,512.21l.09.12L325,549.52l.22-.16" fill="#008f00"/><path d="M325,549.52l264.64-37.19.1.12-265,37.24.26-.17" fill="#008a00"/><path d="M324.69,549.69l265-37.24c.12.16.16.26.1.26l-13.3,1.87-13.3,1.87h0l-13.3,1.87-13.3,1.87h0l-13.3,1.87L510,523.93l-13.3,1.87-13.3,1.87-13.31,1.87-13.3,1.87-13.31,1.87-13.3,1.87L416.85,537l-13.3,1.87-13.3,1.87L377,542.63h0l-13.31,1.87-13.3,1.87L337,548.24l-13.3,1.87h0a2.65,2.65,0,0,0,.95-.42" fill="#008500"/></g></g></g><g style="isolation:isolate"><g clip-path="url(#clip-path-6)"><g style="isolation:isolate"><path d="M588.16,510.81,327.3,547.47l0,0,260.8-36.65,0,0" fill="#00db00"/><path d="M588.13,510.78l-260.8,36.65.16-.2L588,510.62l.17.16" fill="#00e000"/><path d="M588,510.62,327.49,547.23l.15-.18,260.17-36.57.15.14" fill="#00e600"/><path d="M587.81,510.48,327.64,547.05l.13-.17,259.9-36.53.14.13" fill="#00eb00"/><path d="M587.67,510.35l-259.9,36.53.12-.16,259.65-36.49.13.12" fill="#00f000"/><path d="M587.54,510.23,327.89,546.72l.1-.14,259.43-36.46.12.11" fill="#00f500"/><path d="M587.42,510.12,328,546.58a.71.71,0,0,0,.1-.14L587.3,510l.12.1" fill="#00fa00"/><path d="M587.3,510,328.09,546.44l.09-.12,259-36.4.1.1" fill="lime"/><path d="M587.2,509.92l-259,36.4.09-.12L587.1,509.83l.1.09" fill="#1fff1f"/><path d="M587.1,509.83,328.27,546.2l.08-.11L587,509.74l.1.09" fill="#2bff2b"/><path d="M587,509.74,328.35,546.09l.07-.11L586.9,509.65l.1.09" fill="#35ff35"/><path d="M586.9,509.65,328.42,546l.08-.11,258.31-36.3.09.08" fill="#3dff3d"/><path d="M586.81,509.57,328.5,545.87l.07-.1,258.15-36.28.09.08" fill="#4f4"/><path d="M586.72,509.49,328.57,545.77l.07-.11,258-36.26.1.09" fill="#4bff4b"/><path d="M586.62,509.4l-258,36.26.07-.11,257.82-36.23.09.08" fill="#51ff51"/><path d="M586.53,509.32,328.71,545.55l.06-.1,257.66-36.21.1.08" fill="#57ff57"/><path d="M586.43,509.24,328.77,545.45l.08-.12,257.48-36.19.1.1" fill="#5cff5c"/><path d="M586.33,509.14,328.85,545.33s0-.08.07-.13L586.21,509l.12.1" fill="#61ff61"/><path d="M586.21,509,328.92,545.2l.08-.13,257.09-36.13.12.1" fill="#65ff65"/><path d="M586.09,508.94,329,545.07l.13-.23,256.76-36.08.2.18" fill="#6aff6a"/><path d="M585.89,508.76,329.13,544.84a3.35,3.35,0,0,0,.2-.37l256.21-36,.35.29" fill="#6eff6e"/><path d="M585.54,508.47l-256.21,36a.8.8,0,0,0,.08-.16l256-36,.15.13" fill="#6aff6a"/><path d="M585.39,508.34l-256,36,.07-.13,255.79-35.95.12.11" fill="#65ff65"/><path d="M585.27,508.23,329.48,544.18a.36.36,0,0,1,0-.09l255.66-35.93.09.07" fill="#61ff61"/><path d="M585.18,508.16,329.52,544.09a.36.36,0,0,1,0-.09L585.1,508.09l.08.07" fill="#5cff5c"/><path d="M585.1,508.09,329.56,544l0-.08L585,508l.08.07" fill="#57ff57"/><path d="M585,508l-255.43,35.9,0-.07L585,508l.07.06" fill="#51ff51"/><path d="M585,508,329.62,543.85l0-.07,255.22-35.87.08,0" fill="#4bff4b"/><path d="M584.87,507.91,329.65,543.78l0-.08L584.8,507.85l.07.06" fill="#4f4"/><path d="M584.8,507.85,329.68,543.7l0-.07,255-35.84.07.06" fill="#3dff3d"/><path d="M584.73,507.79l-255,35.84,0-.07,254.92-35.83.08.06" fill="#35ff35"/><path d="M584.65,507.73,329.73,543.56l0-.08,254.83-35.81.07.06" fill="#2bff2b"/><path d="M584.58,507.67,329.75,543.48a.24.24,0,0,0,0-.08L584.5,507.6l.08.07" fill="#1fff1f"/><path d="M584.5,507.6,329.77,543.4l0-.08,254.61-35.79.09.07" fill="lime"/><path d="M584.41,507.53,329.8,543.32s0-.06,0-.09l254.51-35.77.09.07" fill="#00fa00"/><path d="M584.32,507.46,329.81,543.23a.29.29,0,0,0,0-.09l254.4-35.75.09.07" fill="#00f500"/><path d="M584.23,507.39l-254.4,35.75a.25.25,0,0,0,0-.08l254.29-35.74.1.07" fill="#00f000"/><path d="M584.13,507.32,329.84,543.06a.25.25,0,0,0,0-.08l254.2-35.73.08.07" fill="#00eb00"/><path d="M584.05,507.25,329.85,543v-.08L584,507.19l.09.06" fill="#00e600"/><path d="M584,507.19,329.85,542.9v-.06l254-35.7.07.05" fill="#00e000"/><path d="M583.89,507.14l-254,35.7s0,0,0-.06l254-35.69.07.05" fill="#00db00"/><path d="M583.82,507.09l-254,35.69a.11.11,0,0,0,0,0l253.93-35.68.06,0" fill="#00d600"/><path d="M583.76,507.05,329.83,542.73v0L583.71,507l0,0" fill="#00d100"/><path d="M583.71,507,329.82,542.69a.05.05,0,0,0,0,0L583.65,507l.06,0" fill="#0c0"/><path d="M583.65,507,329.8,542.65s0,0,0,0l253.82-35.67,0,0" fill="#00c700"/><path d="M583.61,506.94,329.79,542.61l0,0,253.79-35.67.05,0" fill="#00c200"/><path d="M583.56,506.91,329.77,542.58l0,0,253.78-35.67,0,0" fill="#00bd00"/><path d="M583.52,506.88,329.74,542.55l0,0,253.76-35.66,0,0" fill="#00b800"/><path d="M583.48,506.86,329.72,542.52l0,0,253.75-35.66,0,0" fill="#00b300"/><path d="M583.44,506.83,329.69,542.49l0,0L583.4,506.81l0,0" fill="#00ad00"/><polyline points="583.4 506.81 329.66 542.47 329.65 542.47 583.39 506.81 583.4 506.81" fill="#00a800"/></g></g></g><g style="isolation:isolate"><g clip-path="url(#clip-path-7)"><g style="isolation:isolate"><path d="M311.74,275.93l-.49,267.52a.44.44,0,0,1-.2-.45l0-13.34,0-13.35h0l0-13.35,0-13.36h0l0-13.35,0-13.36h0l0-13.36,0-13.36,0-13.36,0-13.36h0l0-13.36,0-13.36,0-13.36,0-13.36,0-13.36,0-13.35,0-13.36,0-13.35,0-13.35,0-13.35s.07,0,.2,0" fill="#008500"/></g></g></g><g style="isolation:isolate"><g clip-path="url(#clip-path-8)"><g style="isolation:isolate"><path d="M578,238.52,311.74,275.93l0,0,266.2-37.41,0,0" fill="#00a800"/><path d="M577.92,238.5h0l-13.31,1.87-13.31,1.87L538,244.11,524.68,246l-13.31,1.87-13.31,1.87-13.31,1.88-13.31,1.87-13.31,1.87-13.31,1.87-13.31,1.87L418.2,261l-13.31,1.87-13.31,1.87-13.31,1.87L365,268.43l-13.31,1.87-13.31,1.87L325,274l-13.31,1.87h0l266.2-37.41h0" fill="#00a300"/><path d="M577.88,238.49,311.68,275.9l0,0,266.18-37.41,0,0" fill="#009e00"/><path d="M577.83,238.47,311.65,275.88h0l266.16-37.4h.05" fill="#090"/><path d="M577.78,238.47l-266.16,37.4h0l266.12-37.4h.07" fill="#009400"/><path d="M577.71,238.47l-266.12,37.4h0l266.05-37.39h.09" fill="#008f00"/><polyline points="577.62 238.47 311.57 275.86 311.57 275.86 324.87 274 338.17 272.13 351.47 270.26 364.77 268.39 378.07 266.52 391.37 264.65 404.68 262.78 417.98 260.91 431.29 259.04 444.59 257.17 457.89 255.3 471.2 253.43 484.5 251.56 497.81 249.69 511.11 247.82 524.41 245.95 537.72 244.08 551.02 242.21 564.32 240.34 577.62 238.47 577.62 238.47" fill="#008a00"/></g></g></g><g style="isolation:isolate"><g clip-path="url(#clip-path-9)"><g style="isolation:isolate"><path d="M587.76,250.13,328.67,286.55l0,0L587.8,250.09l0,0" fill="#00db00"/><path d="M587.8,250.09,328.63,286.51l-.16-.15L588,249.89l-.16.2" fill="#00e000"/><path d="M588,249.89,328.47,286.36l-.15-.14L588.1,249.7l-.14.19" fill="#00e600"/><path d="M588.1,249.7,328.32,286.22l-.14-.13,260.05-36.55a1.83,1.83,0,0,1-.13.16" fill="#00eb00"/><path d="M588.23,249.54l-260,36.55L328,286l260.31-36.58-.12.16" fill="#00f000"/><path d="M588.35,249.38,328,286l-.11-.1,260.53-36.62-.11.14" fill="#00f500"/><path d="M588.46,249.24,327.93,285.86l-.12-.11L588.56,249.1l-.1.14" fill="#00fa00"/><path d="M588.56,249.1,327.81,285.75l-.11-.1,261-36.67-.09.12" fill="lime"/><path d="M588.65,249,327.7,285.65l-.1-.09,261.13-36.7a.83.83,0,0,0-.08.12" fill="#1fff1f"/><path d="M588.73,248.86,327.6,285.56l-.1-.09,261.31-36.72-.08.11" fill="#2bff2b"/><path d="M588.81,248.75,327.5,285.47l-.09-.08,261.48-36.75a1,1,0,0,0-.08.11" fill="#35ff35"/><path d="M588.89,248.64,327.41,285.39l-.1-.09L589,248.53l-.07.11" fill="#3dff3d"/><path d="M589,248.53,327.31,285.3l-.09-.08L589,248.43l-.07.1" fill="#4f4"/><path d="M589,248.43,327.22,285.22l-.09-.08,262-36.82-.07.11" fill="#4bff4b"/><path d="M589.1,248.32l-262,36.82-.1-.09,262.14-36.84-.07.11" fill="#51ff51"/><path d="M589.17,248.21,327,285.05l-.09-.08,262.3-36.86a.61.61,0,0,0-.07.1" fill="#57ff57"/><path d="M589.24,248.11,326.94,285l-.11-.09L589.31,248l-.07.12" fill="#5cff5c"/><path d="M589.31,248,326.83,284.88l-.11-.1,262.67-36.92-.08.13" fill="#61ff61"/><path d="M589.39,247.86,326.72,284.78l-.12-.11,262.87-36.94-.08.13" fill="#65ff65"/><path d="M589.47,247.73,326.6,284.67l-.21-.18,263.21-37-.13.23" fill="#6aff6a"/><path d="M589.6,247.5l-263.21,37-.34-.29L589.8,247.13l-.2.37" fill="#6eff6e"/><path d="M589.8,247.13,326.05,284.2l-.15-.13,264-37.1-.08.16" fill="#6aff6a"/><path d="M589.88,247l-264,37.1-.13-.1,264.17-37.13-.06.13" fill="#65ff65"/><path d="M589.94,246.84,325.77,284l-.08-.08L590,246.75l0,.09" fill="#61ff61"/><path d="M590,246.75,325.69,283.89l-.09-.07L590,246.66l0,.09" fill="#5cff5c"/><path d="M590,246.66,325.6,283.82l-.08-.06,264.53-37.18,0,.08" fill="#57ff57"/><path d="M590.05,246.58,325.52,283.76l-.07-.06,264.63-37.19,0,.07" fill="#51ff51"/><path d="M590.08,246.51,325.45,283.7l-.07-.06,264.73-37.21,0,.08" fill="#4bff4b"/><path d="M590.11,246.43,325.38,283.64l-.07-.06,264.83-37.22,0,.07" fill="#4f4"/><path d="M590.14,246.36,325.31,283.58l-.07-.06,264.93-37.23,0,.07" fill="#3dff3d"/><path d="M590.17,246.29,325.24,283.52l-.08-.06,265-37.25,0,.08" fill="#35ff35"/><path d="M590.19,246.21l-265,37.25-.07-.06,265.12-37.26,0,.07" fill="#2bff2b"/><path d="M590.21,246.14,325.09,283.4l-.09-.06,265.24-37.28,0,.08" fill="#1fff1f"/><path d="M590.24,246.06,325,283.34l-.08-.07L590.26,246a.19.19,0,0,0,0,.08" fill="lime"/><path d="M590.26,246,324.92,283.27l-.09-.07,265.45-37.31s0,.06,0,.09" fill="#00fa00"/><path d="M590.28,245.89,324.83,283.2l-.1-.08L590.29,245.8s0,.06,0,.09" fill="#00f500"/><path d="M590.29,245.8,324.73,283.12l-.09-.07,265.67-37.33s0,.05,0,.08" fill="#00f000"/><path d="M590.31,245.72,324.64,283.05l-.09-.06,265.76-37.35v.08" fill="#00eb00"/><path d="M590.31,245.64,324.55,283l-.08-.07,265.84-37.36v.08" fill="#00e600"/><path d="M590.31,245.56,324.47,282.92l-.07-.05L590.31,245.5v.06" fill="#00e000"/><path d="M590.31,245.5,324.4,282.87l-.07-.05,266-37.38a.13.13,0,0,1,0,.06" fill="#00db00"/><path d="M590.3,245.44l-266,37.38-.06,0,266-37.39a.11.11,0,0,1,0,.05" fill="#00d600"/><path d="M590.29,245.39l-266,37.39-.06,0,266.07-37.39a.06.06,0,0,1,0,0" fill="#00d100"/><path d="M590.28,245.35,324.21,282.74l0,0,266.11-37.39s0,0,0,0" fill="#0c0"/><path d="M590.27,245.31,324.16,282.7l-.05,0,266.14-37.4s0,0,0,0" fill="#00c700"/><path d="M590.25,245.27l-266.14,37.4,0,0,266.16-37.4,0,0" fill="#00c200"/><path d="M590.23,245.24l-266.16,37.4-.05,0,266.19-37.41,0,0" fill="#00bd00"/><path d="M590.21,245.21,324,282.62l0,0,266.2-37.41,0,0" fill="#00b800"/><path d="M590.18,245.18,324,282.59l0,0,266.21-37.42,0,0" fill="#00b300"/><path d="M590.15,245.15,323.94,282.57l0,0,266.21-37.42,0,0" fill="#00ad00"/><polyline points="590.12 245.13 323.91 282.55 323.9 282.54 590.11 245.13 590.12 245.13" fill="#00a800"/></g></g></g><g style="isolation:isolate"><g clip-path="url(#clip-path-10)"><g style="isolation:isolate"><path d="M327.78,285.71l260.87-36.66-.14.17L327.92,285.84l-.14-.13" fill="#00db00"/><path d="M327.92,285.84l260.59-36.62-.19.23L328.1,286l-.18-.18" fill="#00d600"/><path d="M328.1,286l260.22-36.57a2.2,2.2,0,0,0-.2.23L328.29,286.19l-.19-.17" fill="#00d100"/><path d="M328.29,286.19l259.83-36.51-.21.23L328.47,286.37l-.18-.18" fill="#0c0"/><path d="M328.47,286.37l259.44-36.46-.21.23h0L574.63,252l-13,1.83-13,1.83-13,1.82-12.94,1.82-12.93,1.82-12.91,1.82L484,264.72l-12.89,1.81-12.89,1.81-12.88,1.81L432.4,272l-12.9,1.82-12.91,1.81-12.93,1.82-13,1.82-13,1.82-13,1.83-13,1.83-13.07,1.83-.18-.17" fill="#00c700"/><path d="M328.65,286.54l259.05-36.4-.21.22L328.82,286.71l-.17-.17" fill="#00c200"/><path d="M328.82,286.71l258.67-36.35-.21.22L329,286.88l-.17-.17" fill="#00bd00"/><path d="M329,286.88l258.29-36.3-.21.2L329.14,287l-.15-.15" fill="#00b800"/><path d="M329.14,287l257.93-36.25-.21.2h0l-13,1.82L561,254.62l-12.91,1.82-12.9,1.81-12.87,1.81-12.86,1.8-12.85,1.81-12.84,1.8-12.83,1.81-12.83,1.8-12.84,1.8-12.83,1.81-12.84,1.8-12.85,1.81-12.86,1.81L381,279.92l-12.9,1.81-12.91,1.81-12.93,1.82-13,1.82-.15-.15" fill="#00b300"/><path d="M329.29,287.18,586.86,251a1.8,1.8,0,0,1-.2.19L329.43,287.32a.93.93,0,0,1-.14-.14" fill="#00ad00"/><path d="M329.43,287.32h0l12.93-1.81,12.91-1.82,12.9-1.81L381,280.07l12.86-1.81,12.84-1.8,12.84-1.81,12.82-1.8,12.82-1.8,12.82-1.8,12.82-1.8,12.82-1.81,12.83-1.8,12.83-1.8,12.85-1.81,12.86-1.8,12.87-1.81,12.89-1.82L573.72,253l12.94-1.82-.2.19-256.9,36.1a.86.86,0,0,1-.13-.14" fill="#00a800"/><path d="M329.56,287.46l256.9-36.1-.2.17L329.68,287.59l-.12-.13" fill="#00a300"/><path d="M329.68,287.59l12.89-1.81L355.44,284l12.85-1.81,12.84-1.8,12.82-1.8,12.82-1.8,12.81-1.8,12.8-1.8,12.79-1.8,12.8-1.8,12.79-1.8,12.8-1.8,12.8-1.79,12.8-1.8L522,260.56l12.82-1.8,12.84-1.8,12.86-1.81,12.87-1.81,12.89-1.81-.21.17-256.26,36-.11-.13" fill="#009e00"/><path d="M329.79,287.72l256.26-36-.2.17-256,36-.11-.12" fill="#090"/><path d="M329.9,287.84l256-36-.21.16L330,288l-.1-.12" fill="#009400"/><path d="M330,288,585.64,252l-.23.16L330.1,288.07,330,288" fill="#008f00"/><path d="M330.1,288.07l255.31-35.88-.26.17-255,35.83-.09-.12" fill="#008a00"/><path d="M330.19,288.19l255-35.83a2.41,2.41,0,0,1-.94.41h0l-12.7,1.79-12.7,1.78-12.7,1.79-12.69,1.78h0l-12.7,1.79L508,263.48l-12.7,1.78-12.69,1.79L470,268.83l-12.7,1.79h0l-12.69,1.78-12.69,1.78L419.17,276l-12.69,1.78-12.7,1.79-12.69,1.78h0l-12.7,1.78-12.69,1.79L343,286.67l-12.7,1.79h0c.05,0,0-.1-.11-.27" fill="#008500"/></g></g></g><g style="isolation:isolate"><g clip-path="url(#clip-path-11)"><g style="isolation:isolate"><path d="M327.3,547.47l.48-261.76.81.78-.48,259.94c-.25.34-.52.69-.81,1" fill="#00db00"/><path d="M328.11,546.43l.48-259.94.53.52-.48,258.64c-.16.25-.34.51-.53.78" fill="#00d600"/><path d="M328.64,545.65,329.12,287l.33.34L329,545.13c-.1.17-.21.34-.33.52" fill="#00d100"/><path d="M329,545.13l.48-257.78.22.24,0,12.92,0,12.9,0,12.89,0,12.86,0,12.86,0,12.84,0,12.83,0,12.83,0,12.82,0,12.82,0,12.82,0,12.82,0,12.83,0,12.83,0,12.84,0,12.86,0,12.86,0,12.89,0,12.9,0,12.92-.23.4" fill="#0c0"/><path d="M329.2,544.73l.47-257.14.17.18-.48,256.65-.16.31" fill="#00c700"/><path d="M329.36,544.42h0l0-12.89,0-12.87,0-12.85,0-12.84,0-12.83,0-12.82,0-12.82,0-12.8,0-12.81,0-12.8,0-12.8,0-12.8,0-12.81,0-12.81,0-12.82,0-12.83,0-12.84,0-12.86,0-12.87,0-12.88.12.14-.47,256.25c0,.08-.08.17-.13.26" fill="#00c200"/><path d="M329.49,544.16,330,287.91l.1.11-.48,255.92-.09.22" fill="#00bd00"/><path d="M329.58,543.94,330.06,288l.08.1-.48,255.63c0,.06-.05.12-.08.19" fill="#00b800"/><path d="M329.66,543.75l.48-255.63.06.07-.48,255.39-.06.17" fill="#00b300"/><path d="M329.72,543.58l.48-255.39a.43.43,0,0,0,0,.07h0l0,12.78,0,12.78,0,12.76,0,12.76,0,12.76,0,12.75,0,12.75,0,12.75,0,12.75,0,12.74,0,12.75,0,12.74,0,12.75,0,12.75,0,12.75,0,12.76,0,12.76,0,12.77,0,12.77,0,12.78c0,.05,0,.1,0,.16" fill="#00ad00"/><path d="M329.77,543.42h0l0-12.78,0-12.77,0-12.77,0-12.76,0-12.76,0-12.75,0-12.75,0-12.75,0-12.74,0-12.75,0-12.74,0-12.75,0-12.75,0-12.75,0-12.75,0-12.76,0-12.76,0-12.76,0-12.78,0-12.78,0,.05-.48,255,0,.14" fill="#00a800"/><path d="M329.8,543.28l.48-255s0,0,0,.05l-.47,254.8,0,.12" fill="#00a300"/><path d="M329.83,543.16l.47-254.8,0,0L329.84,543a.49.49,0,0,1,0,.12" fill="#009e00"/><path d="M329.84,543l.48-254.64v0l-.47,254.51a.41.41,0,0,1,0,.11" fill="#090"/><path d="M329.85,542.93l.47-254.51h0l0,12.73,0,12.73h0l0,12.73,0,12.73,0,12.72,0,12.72,0,12.72,0,12.72,0,12.72,0,12.72,0,12.72,0,12.72,0,12.72,0,12.72,0,12.73L330,492l0,12.72,0,12.73,0,12.73,0,12.74h0" fill="#009400"/></g></g></g><g style="isolation:isolate"><g clip-path="url(#clip-path-12)"><g style="isolation:isolate"><path d="M328.67,286.55l-.48,259.83q-.69.84-1.38,1.53l.49-262.62c.45.41.92.83,1.37,1.26" fill="#00db00"/><path d="M327.3,285.29l-.49,262.62c-.14.14-.27.28-.41.41l.49-263.4.41.37" fill="#00d600"/><path d="M326.89,284.92l-.49,263.4-.31.28.49-263.94.31.26" fill="#00d100"/><path d="M326.58,284.66l-.49,263.94-.26.24.49-264.41.26.23" fill="#0c0"/><path d="M326.32,284.43l-.49,264.41-.24.2.49-264.82.24.21" fill="#00c700"/><path d="M326.08,284.22,325.59,549l-.22.17L325.86,284l.22.18" fill="#00c200"/><path d="M325.86,284l-.49,265.17-.21.16.49-265.5.21.17" fill="#00bd00"/><path d="M325.65,283.87l-.49,265.5-.19.14.49-265.8.19.16" fill="#00b800"/><path d="M325.46,283.71,325,549.51l-.18.12.5-266.07.17.15" fill="#00b300"/><path d="M325.29,283.56l-.5,266.07-.16.1.5-266.3.16.13" fill="#00ad00"/><path d="M325.13,283.43l-.5,266.3-.15.09.5-266.51.15.12" fill="#00a800"/><path d="M325,283.31l-.5,266.51-.14.07.49-266.69.15.11" fill="#00a300"/><path d="M324.83,283.2l-.49,266.69-.14.07.5-266.86.13.1" fill="#009e00"/><path d="M324.7,283.1,324.2,550l-.13,0,.5-267,.13.1" fill="#090"/><path d="M324.57,283l-.5,267-.12,0,.49-267.16.13.1" fill="#009400"/><path d="M324.44,282.9,324,550.06l-.13,0,.49-267.28.13.09" fill="#008f00"/><path d="M324.31,282.81l-.49,267.28-.15,0,.5-267.4.14.1" fill="#008a00"/><path d="M324.17,282.71l-.5,267.4a.49.49,0,0,1-.27-.05l.5-267.52.27.17" fill="#008500"/></g></g></g><path d="M328.67,286.55l259.09-36.42c-.16,85.33-.32,174.51-.48,259.84L328.19,546.38C328.35,461.05,328.51,371.88,328.67,286.55ZM588.16,510.81c.17-88.53.32-173.23.49-261.76L327.78,285.71c-.16,88.54-.32,173.23-.48,261.76l260.86-36.66" fill="#00df00"/><polygon points="323.4 550.06 311.25 543.45 311.74 275.93 323.9 282.54 323.4 550.06" fill="#008200"/><polygon points="323.9 282.54 311.74 275.93 577.96 238.52 590.11 245.13 323.9 282.54" fill="#00b400"/></g><g style="isolation:isolate"><polygon points="1321.99 835.3 1293.87 818.72 1507.86 479.95 1535.98 496.54 1321.99 835.3" fill="#00ca00"/><polygon points="1694.32 789.43 1666.19 772.85 1509.11 468.05 1537.23 484.63 1694.32 789.43" fill="#00d400"/><polygon points="1310.63 843.36 1282.51 826.77 1666.19 772.85 1694.32 789.43 1310.63 843.36" fill="green"/><path d="M1509.11,468.05l157.08,304.8-383.68,53.92ZM1507.86,480l-214,338.76,362.33-50.93L1507.86,480" fill="#00b600"/></g><g style="isolation:isolate"><g style="isolation:isolate"><g clip-path="url(#clip-path-13)"><g style="isolation:isolate"><path d="M661.77,846.69l15.19-23q-1.31,2-2.47,4l-15.18,23q1.16-2.07,2.46-4" fill="#008500"/><path d="M659.31,850.73l15.18-23a65.47,65.47,0,0,0-3.3,6.79l-15.18,23a63.35,63.35,0,0,1,3.3-6.78" fill="#008a00"/><path d="M656,857.51l15.18-23c-.75,1.8-1.43,3.64-2,5.52L654,863c.59-1.88,1.26-3.73,2-5.53" fill="#008f00"/><path d="M654,863l15.18-23q-.75,2.42-1.34,4.9l-15.18,23q.57-2.49,1.34-4.9" fill="#009400"/><path d="M652.65,867.94l15.18-23q-.52,2.25-.9,4.56l-15.18,23q.38-2.31.9-4.56" fill="#090"/><path d="M651.75,872.5l15.18-23c-.24,1.45-.43,2.91-.57,4.39l-15.19,23c.15-1.48.34-2.95.58-4.39" fill="#009e00"/><path d="M651.17,876.89l15.19-23c-.14,1.41-.24,2.84-.29,4.28l-15.19,22.95c.06-1.44.16-2.86.29-4.27" fill="#00a300"/><path d="M650.88,881.16l15.19-22.95c-.06,1.36-.07,2.73-.05,4.11l-15.18,23c0-1.38,0-2.76,0-4.12" fill="#00a800"/><path d="M650.84,885.28l15.18-23c0,1.37.09,2.75.19,4.14l-15.18,23c-.1-1.39-.16-2.77-.19-4.14" fill="#00ad00"/><path d="M651,889.42l15.18-23c.1,1.36.23,2.74.41,4.13l-15.19,22.95c-.17-1.38-.3-2.76-.4-4.12" fill="#00b300"/><path d="M651.43,893.54l15.19-22.95.12.95q.22,1.61.51,3.21l-15.18,23q-.29-1.61-.51-3.21c0-.32-.09-.64-.13-1" fill="#00b800"/><path d="M652.07,897.71l15.18-23c.25,1.39.53,2.77.85,4.15l-15.18,23c-.32-1.37-.61-2.75-.85-4.14" fill="#00bd00"/><path d="M652.92,901.85l15.18-23c.33,1.41.69,2.82,1.09,4.21l-15.18,23c-.4-1.4-.77-2.8-1.09-4.22" fill="#00c200"/><path d="M654,906.07l15.18-23c.42,1.45.87,2.89,1.36,4.32l-15.18,23c-.49-1.43-1-2.87-1.36-4.32" fill="#00c700"/><path d="M655.37,910.39l15.18-23q.76,2.24,1.65,4.42L657,914.8c-.59-1.45-1.14-2.93-1.65-4.41" fill="#0c0"/><path d="M657,914.8l15.18-22.95c.64,1.58,1.33,3.16,2.07,4.71l-15.19,23q-1.1-2.34-2.06-4.72" fill="#00d100"/><path d="M659.08,919.52l15.19-23q1.22,2.6,2.6,5.11l-15.18,23q-1.38-2.52-2.61-5.11" fill="#00d600"/><path d="M661.69,924.63l15.18-23q1.59,2.91,3.39,5.71l-15.19,23q-1.79-2.8-3.38-5.71" fill="#00db00"/><path d="M665.07,930.34l15.19-23q2.24,3.51,4.79,6.85l-15.19,22.95q-2.54-3.33-4.79-6.84" fill="#00e000"/><path d="M669.86,937.18l15.19-22.95a107.56,107.56,0,0,0,10.24,11.56l-15.18,23a105.75,105.75,0,0,1-10.25-11.57" fill="#00e600"/><path d="M680.11,948.75l15.18-23a109.56,109.56,0,0,0,8.4,7.41l-15.18,23a109.82,109.82,0,0,1-8.4-7.41" fill="#00eb00"/><path d="M688.51,956.16l15.18-23a111,111,0,0,0,13.61,9.27l-15.19,23a111.62,111.62,0,0,1-13.6-9.27" fill="#00e600"/><path d="M702.11,965.43l15.19-23c2.47,1.43,5,2.77,7.58,4l-15.18,23q-3.87-1.86-7.59-4" fill="#00e000"/><path d="M709.7,969.43l15.18-23c2.06,1,4.16,1.91,6.28,2.76l-15.18,23c-2.13-.85-4.22-1.78-6.28-2.76" fill="#00db00"/><path d="M716,972.19l15.18-23c1.83.74,3.69,1.43,5.56,2.06l-15.18,23c-1.88-.64-3.73-1.32-5.56-2.06" fill="#00d600"/><path d="M721.54,974.25l15.18-23c1.67.57,3.36,1.09,5,1.57l-15.18,23c-1.7-.48-3.38-1-5.05-1.57" fill="#00d100"/><path d="M726.59,975.82l15.18-23c1.61.46,3.22.87,4.84,1.25l-15.18,22.95c-1.63-.37-3.24-.79-4.84-1.24" fill="#0c0"/><path d="M731.43,977.06l15.18-22.95c1.55.35,3.12.68,4.69,1l-15.19,23c-1.57-.29-3.13-.61-4.68-1" fill="#00c700"/><path d="M736.11,978l15.19-23c1.48.27,3,.51,4.48.71l-15.19,23c-1.5-.2-3-.44-4.48-.71" fill="#00c200"/><path d="M740.59,978.74l15.19-23c1.48.2,3,.36,4.45.5l-15.18,23c-1.49-.13-3-.29-4.46-.49" fill="#00bd00"/><path d="M745.05,979.23l15.18-23c1.47.13,2.95.22,4.42.28l-15.18,23c-1.48-.06-3-.16-4.42-.29" fill="#00b800"/><path d="M749.47,979.52l15.18-23,.64,0L750.1,979.54l-.63,0" fill="#00b300"/></g></g></g><g style="isolation:isolate"><g clip-path="url(#clip-path-14)"><g style="isolation:isolate"><path d="M750.1,979.54l15.19-22.95c1.27,0,2.53.06,3.78,0l-15.18,23c-1.25,0-2.51,0-3.79-.06" fill="#00b300"/><path d="M753.89,979.6l15.18-23c1.47,0,2.93,0,4.37-.13l-15.18,23c-1.44.08-2.9.12-4.37.13" fill="#00ad00"/><path d="M758.26,979.47l15.18-23c1.48-.08,2.95-.19,4.4-.34l-15.19,23c-1.44.15-2.91.26-4.39.34" fill="#00a800"/><path d="M762.65,979.13l15.19-23c1.51-.16,3-.36,4.48-.59l-15.18,23c-1.48.23-3,.43-4.49.59" fill="#00a300"/><path d="M767.14,978.54l15.18-23c1.54-.24,3.06-.53,4.55-.85l-15.18,23c-1.49.32-3,.6-4.55.85" fill="#009e00"/><path d="M771.69,977.69l15.18-23c1.62-.35,3.21-.75,4.77-1.19l-15.18,23c-1.56.44-3.15.84-4.77,1.19" fill="#090"/><path d="M776.46,976.5l15.18-23q2.64-.74,5.17-1.65l-15.19,23q-2.52.9-5.16,1.65" fill="#009400"/><path d="M781.62,974.85l15.19-23c2-.7,3.85-1.48,5.7-2.32l-15.18,23c-1.86.84-3.76,1.62-5.71,2.32" fill="#008f00"/><path d="M787.33,972.53l15.18-23a72.5,72.5,0,0,0,6.73-3.5L794.06,969a71.43,71.43,0,0,1-6.73,3.51" fill="#008a00"/><path d="M794.06,969l15.18-22.95a66.66,66.66,0,0,0,21.85-20.63l-15.18,23A66.73,66.73,0,0,1,794.06,969" fill="#008500"/></g></g></g><g style="isolation:isolate"><g clip-path="url(#clip-path-15)"><g style="isolation:isolate"><path d="M661.77,846.69l15.19-23a66.66,66.66,0,0,1,21.85-20.63l-15.19,23a66.76,66.76,0,0,0-21.85,20.63" fill="#0c0c0c"/><path d="M683.62,826.06l15.19-23a72.5,72.5,0,0,1,6.73-3.5l-15.18,23a72.68,72.68,0,0,0-6.74,3.5" fill="#0c0c0c"/><path d="M690.36,822.56l15.18-23q2.78-1.27,5.7-2.32l-15.18,23q-2.92,1.05-5.7,2.32" fill="#0d0d0d"/><path d="M696.06,820.24l15.18-23q2.53-.91,5.17-1.65l-15.19,23q-2.62.75-5.16,1.66" fill="#0d0d0d"/><path d="M701.22,818.58l15.19-23c1.56-.44,3.15-.84,4.77-1.19L706,817.4c-1.61.35-3.2.74-4.77,1.18" fill="#0e0e0e"/><path d="M706,817.4l15.19-23c1.49-.32,3-.61,4.55-.85l-15.19,23c-1.54.24-3,.52-4.55.85" fill="#0e0e0e"/><path d="M710.54,816.55l15.19-23c1.47-.23,3-.43,4.48-.59L715,816c-1.52.16-3,.35-4.49.59" fill="#0f0f0f"/><path d="M715,816l15.18-23c1.45-.15,2.91-.27,4.4-.34l-15.19,23c-1.48.08-2.94.2-4.39.35" fill="#0f0f0f"/><path d="M719.42,815.61l15.19-23c1.44-.08,2.9-.13,4.37-.13l-15.19,23c-1.47,0-2.93.06-4.37.13" fill="#101010"/><path d="M723.79,815.48l15.19-23c1.25,0,2.51,0,3.78.05l-15.18,23c-1.27,0-2.53-.06-3.79-.06" fill="#101010"/></g></g></g><g style="isolation:isolate"><g clip-path="url(#clip-path-16)"><g style="isolation:isolate"><path d="M655.92,842.78l15.18-23a71.56,71.56,0,0,1,23.45-22.13l-15.18,23a71.45,71.45,0,0,0-23.45,22.13" fill="#008500"/><path d="M679.37,820.65l15.18-23a77.16,77.16,0,0,1,7.23-3.76l-15.18,23a77.23,77.23,0,0,0-7.23,3.77" fill="#008a00"/><path d="M686.6,816.88l15.18-23c2-.91,4-1.74,6.13-2.5l-15.18,23q-3.15,1.14-6.13,2.49" fill="#008f00"/><path d="M692.73,814.39l15.18-23q2.73-1,5.56-1.77l-15.18,23c-1.89.54-3.75,1.13-5.56,1.78" fill="#009400"/><path d="M698.29,812.61l15.18-23c1.68-.48,3.39-.9,5.13-1.28l-15.18,23c-1.74.37-3.45.8-5.13,1.27" fill="#090"/><path d="M703.42,811.34l15.18-23c1.62-.35,3.25-.66,4.91-.92l-15.18,23c-1.66.26-3.3.57-4.91.92" fill="#009e00"/><path d="M708.33,810.42l15.18-23c1.59-.25,3.21-.46,4.84-.63l-15.18,22.95c-1.64.17-3.25.39-4.84.64" fill="#00a300"/><path d="M713.17,809.78l15.18-22.95c1.56-.17,3.14-.29,4.74-.38l-15.18,23c-1.6.09-3.18.21-4.74.37" fill="#00a800"/><path d="M717.91,809.41l15.18-23c1.56-.08,3.14-.13,4.73-.14l-15.18,23c-1.6,0-3.17.06-4.73.14" fill="#00ad00"/><path d="M722.64,809.27l15.18-23c1.35,0,2.71,0,4.09.06l-15.19,23q-2.06-.08-4.08-.06" fill="#00b300"/></g></g></g><g style="isolation:isolate"><g clip-path="url(#clip-path-17)"><g style="isolation:isolate"><path d="M727.58,815.54l15.18-23,.64,0-15.19,22.95-.63,0" fill="#101010"/><path d="M728.21,815.56l15.19-22.95c1.47.06,3,.15,4.42.28l-15.19,23c-1.47-.13-2.94-.22-4.42-.29" fill="#111"/><path d="M732.63,815.85l15.19-23c1.49.13,3,.3,4.45.5l-15.18,23c-1.48-.2-3-.37-4.46-.5" fill="#111"/><path d="M737.09,816.35l15.18-23c1.5.2,3,.44,4.48.71l-15.18,23c-1.49-.27-3-.51-4.48-.71" fill="#111"/><path d="M741.57,817.06l15.18-23c1.57.28,3.14.61,4.69,1l-15.19,23q-2.32-.54-4.68-1" fill="#121212"/><path d="M746.25,818l15.19-23c1.62.38,3.23.79,4.83,1.25l-15.18,23q-2.4-.68-4.84-1.24" fill="#121212"/><path d="M751.09,819.26l15.18-23q2.55.72,5.06,1.57l-15.19,23c-1.67-.57-3.35-1.09-5-1.58" fill="#131313"/><path d="M756.14,820.84l15.19-23c1.87.63,3.73,1.32,5.56,2.06L761.7,822.89c-1.83-.73-3.68-1.42-5.56-2" fill="#131313"/><path d="M761.7,822.89l15.19-22.95q3.18,1.27,6.28,2.76l-15.19,23q-3.09-1.49-6.28-2.77" fill="#141414"/><path d="M768,825.66l15.19-23c2.58,1.23,5.11,2.57,7.58,4l-15.18,22.95c-2.47-1.43-5-2.76-7.59-4" fill="#141414"/></g></g></g><g style="isolation:isolate"><g clip-path="url(#clip-path-18)"><g style="isolation:isolate"><path d="M768,825.66l15.19-23c2.58,1.23,5.11,2.57,7.58,4l-15.18,22.95c-2.47-1.43-5-2.76-7.59-4" fill="#141414"/><path d="M775.57,829.65l15.18-22.95a110,110,0,0,1,13.6,9.26l-15.18,23a112.77,112.77,0,0,0-13.6-9.27" fill="#151515"/><path d="M789.17,838.92l15.18-23c2.93,2.34,5.74,4.81,8.4,7.41l-15.18,23a109.82,109.82,0,0,0-8.4-7.41" fill="#151515"/><path d="M797.57,846.33l15.18-23A106.68,106.68,0,0,1,823,834.94l-15.18,23a106.8,106.8,0,0,0-10.25-11.57" fill="#151515"/><path d="M807.82,857.9l15.18-23c1.69,2.22,3.29,4.51,4.79,6.85l-15.18,23c-1.5-2.34-3.1-4.63-4.79-6.85" fill="#141414"/><path d="M812.61,864.75l15.18-23q1.8,2.81,3.39,5.71l-15.19,23c-1.06-1.93-2.19-3.84-3.38-5.7" fill="#141414"/><path d="M816,870.45l15.19-23q1.38,2.52,2.6,5.11l-15.18,23c-.81-1.73-1.68-3.43-2.61-5.12" fill="#131313"/><path d="M818.6,875.57l15.18-23c.74,1.56,1.42,3.13,2.07,4.72l-15.19,22.95c-.64-1.58-1.33-3.16-2.06-4.71" fill="#131313"/><path d="M820.66,880.28l15.19-22.95c.59,1.45,1.14,2.93,1.65,4.41l-15.19,23q-.76-2.24-1.65-4.42" fill="#121212"/><path d="M822.31,884.7l15.19-23c.49,1.43.94,2.87,1.36,4.32l-15.19,23c-.41-1.45-.86-2.89-1.36-4.32" fill="#121212"/><path d="M823.67,889l15.19-23c.4,1.4.76,2.8,1.09,4.22l-15.18,23c-.33-1.42-.69-2.83-1.1-4.22" fill="#111"/><path d="M824.77,893.24l15.18-23c.32,1.37.6,2.76.85,4.15l-15.18,23c-.25-1.39-.53-2.77-.85-4.14" fill="#111"/><path d="M825.62,897.38l15.18-23q.29,1.59.51,3.21l.12,1-15.18,23c0-.32-.08-.64-.13-1-.14-1.07-.31-2.14-.5-3.21" fill="#111"/><path d="M826.25,901.55l15.18-23c.18,1.39.31,2.76.41,4.13l-15.18,23c-.1-1.37-.24-2.75-.41-4.13" fill="#101010"/><path d="M826.66,905.68l15.18-23c.1,1.39.16,2.77.19,4.13l-15.19,23c0-1.37-.08-2.75-.18-4.13" fill="#101010"/><path d="M826.84,909.81l15.19-23c0,1.39,0,2.76,0,4.12l-15.18,23c.05-1.36.07-2.74,0-4.12" fill="#0f0f0f"/><path d="M826.8,913.93,842,891c-.05,1.44-.15,2.86-.29,4.27l-15.18,23c.14-1.41.23-2.83.29-4.27" fill="#0f0f0f"/><path d="M826.51,918.2l15.18-23c-.14,1.48-.33,3-.57,4.39l-15.18,23c.23-1.45.42-2.91.57-4.39" fill="#0e0e0e"/><path d="M825.94,922.59l15.18-23q-.37,2.31-.9,4.56l-15.18,23q.53-2.25.9-4.56" fill="#0e0e0e"/><path d="M825,927.15l15.18-23c-.39,1.66-.83,3.29-1.34,4.9L823.7,932q.75-2.4,1.34-4.89" fill="#0d0d0d"/><path d="M823.7,932l15.18-22.95c-.59,1.88-1.27,3.72-2,5.52l-15.18,23q1.13-2.7,2-5.53" fill="#0d0d0d"/><path d="M821.68,937.57l15.18-23a65.47,65.47,0,0,1-3.3,6.79l-15.18,23a67.56,67.56,0,0,0,3.3-6.79" fill="#0c0c0c"/><path d="M818.38,944.36l15.18-23c-.77,1.38-1.6,2.73-2.47,4l-15.18,23c.87-1.32,1.69-2.66,2.47-4" fill="#0c0c0c"/></g></g></g><g style="isolation:isolate"><g clip-path="url(#clip-path-19)"><g style="isolation:isolate"><path d="M726.72,809.33l15.19-23,.68,0-15.18,23-.69,0" fill="#00b300"/><path d="M727.41,809.36l15.18-23c1.6.07,3.19.17,4.78.31l-15.18,23c-1.59-.14-3.18-.25-4.78-.31" fill="#00b800"/><path d="M732.19,809.67l15.18-23c1.61.14,3.22.32,4.81.54L737,810.2c-1.6-.21-3.2-.39-4.81-.53" fill="#00bd00"/><path d="M737,810.2l15.18-23c1.62.21,3.23.47,4.84.76l-15.18,23c-1.61-.29-3.22-.55-4.84-.77" fill="#00c200"/><path d="M741.84,811,757,788c1.69.31,3.38.66,5.05,1l-15.18,23c-1.68-.39-3.36-.73-5-1" fill="#00c700"/><path d="M746.89,812l15.18-23c1.75.41,3.49.85,5.21,1.34l-15.18,23c-1.73-.49-3.46-.94-5.21-1.34" fill="#0c0"/><path d="M752.1,813.35l15.18-23q2.75.78,5.45,1.69l-15.19,23q-2.7-.91-5.44-1.69" fill="#00d100"/><path d="M757.54,815l15.19-23q3,1,6,2.22l-15.18,23q-3-1.2-6-2.22" fill="#00d600"/><path d="M763.52,817.26l15.18-23c2.28.92,4.54,1.91,6.75,3l-15.18,23q-3.33-1.59-6.75-3" fill="#00db00"/><path d="M770.27,820.22l15.18-23q4.17,2,8.16,4.3l-15.18,22.95q-4-2.29-8.16-4.3" fill="#00e000"/><path d="M778.43,824.52l15.18-22.95a118.28,118.28,0,0,1,14.59,9.94l-15.18,23a120.25,120.25,0,0,0-14.59-10" fill="#00e600"/><path d="M793,834.47l15.18-23a119.44,119.44,0,0,1,9,7.93L802,842.4a119.29,119.29,0,0,0-9-7.93" fill="#00eb00"/><path d="M802,842.4l15.19-23a113.63,113.63,0,0,1,11,12.44l-15.18,23a114.56,114.56,0,0,0-11-12.43" fill="#00e600"/><path d="M813,854.83l15.18-23q2.73,3.57,5.15,7.35l-15.19,23q-2.4-3.78-5.14-7.36" fill="#00e000"/><path d="M818.17,862.19l15.19-23c1.28,2,2.5,4,3.64,6.14l-15.18,23c-1.15-2.08-2.36-4.13-3.65-6.13" fill="#00db00"/><path d="M821.82,868.32l15.18-23c1,1.81,1.93,3.64,2.8,5.5l-15.18,23q-1.32-2.79-2.8-5.51" fill="#00d600"/><path d="M824.62,873.83l15.18-23q1.19,2.5,2.22,5.07l-15.18,23q-1-2.56-2.22-5.07" fill="#00d100"/><path d="M826.84,878.9l15.18-23c.64,1.58,1.23,3.16,1.78,4.76l-15.18,23c-.55-1.6-1.15-3.19-1.78-4.76" fill="#0c0"/><path d="M828.62,883.66l15.18-23c.53,1.55,1,3.1,1.47,4.67l-15.18,23c-.45-1.56-.94-3.12-1.47-4.66" fill="#00c700"/><path d="M830.09,888.32l15.18-23c.43,1.5.83,3,1.18,4.55l-15.18,23c-.36-1.52-.75-3-1.18-4.55" fill="#00c200"/><path d="M831.27,892.87l15.18-23c.34,1.48.65,3,.92,4.48l-15.19,23c-.26-1.51-.57-3-.91-4.49" fill="#00bd00"/><path d="M832.18,897.36l15.19-23c.2,1.15.38,2.31.54,3.47.05.34.1.69.14,1l-15.18,23c0-.35-.09-.69-.14-1-.16-1.17-.34-2.32-.55-3.47" fill="#00b800"/><path d="M832.87,901.86l15.18-23c.19,1.5.33,3,.44,4.46l-15.18,23c-.11-1.48-.26-3-.44-4.46" fill="#00b300"/><path d="M833.31,906.32l15.18-23c.11,1.5.17,3,.2,4.46l-15.18,23c0-1.48-.1-3-.2-4.46" fill="#00ad00"/><path d="M833.51,910.78l15.18-23c0,1.5,0,3,0,4.45l-15.19,23c.06-1.46.07-3,0-4.44" fill="#00a800"/><path d="M833.46,915.22l15.19-23c-.06,1.55-.17,3.08-.32,4.6l-15.18,23c.15-1.52.25-3.06.31-4.61" fill="#00a300"/><path d="M833.15,919.83l15.18-23c-.15,1.6-.36,3.18-.61,4.73l-15.19,23c.26-1.56.46-3.13.62-4.73" fill="#009e00"/><path d="M832.53,924.56l15.19-23c-.27,1.66-.6,3.3-1,4.91l-15.19,23c.38-1.61.7-3.25,1-4.91" fill="#090"/><path d="M831.56,929.47l15.19-23c-.42,1.78-.9,3.54-1.44,5.26l-15.19,23c.55-1.72,1-3.48,1.44-5.26" fill="#009400"/><path d="M830.12,934.73l15.19-23c-.64,2-1.37,4-2.17,6L828,940.67q1.21-2.89,2.17-5.94" fill="#008f00"/><path d="M828,940.67l15.19-22.95a72.19,72.19,0,0,1-3.55,7.29L824.4,948a67.4,67.4,0,0,0,3.55-7.3" fill="#008a00"/><path d="M824.4,948l15.19-23c-.83,1.48-1.72,2.93-2.65,4.34L821.76,952.3q1.4-2.12,2.64-4.33" fill="#008500"/></g></g></g><path d="M726.72,809.33c51.86,1.81,99.32,42.77,106,91.5S802.81,987.56,751,985.75s-99.33-42.77-106-91.48S674.86,807.52,726.72,809.33ZM750.1,979.54c48.13,1.69,82.23-33.73,76-78.95s-50.42-83.37-98.54-85.05-82.23,33.74-76,79,50.42,83.36,98.54,85" fill="#0a0"/><path d="M727.58,815.54c48.12,1.68,92.33,39.83,98.54,85.05s-27.89,80.64-76,78.95-92.33-39.83-98.54-85S679.45,813.86,727.58,815.54Z" fill="#0f0f0f"/></g><g style="isolation:isolate"><polygon points="1020.07 136.85 1061.21 113.53 1259.91 337.47 1218.77 360.79 1020.07 136.85" fill="#00e700"/><polygon points="1218.77 360.79 1259.91 337.47 1260.15 341.75 1219.01 365.06 1218.77 360.79" fill="#00ab00"/><polygon points="1020.07 136.85 1218.77 360.79 1219.01 365.06 1020.31 141.12 1020.07 136.85" fill="green"/></g><g style="isolation:isolate"><polygon points="1036.31 368.54 1005.42 341.79 1003.19 338.3 1034.08 365.04 1036.31 368.54" fill="green"/><polygon points="1034.08 365.04 1003.19 338.3 1243.91 110.06 1274.8 136.8 1034.08 365.04" fill="#00d100"/><polygon points="1274.8 136.8 1277.03 140.3 1036.31 368.54 1034.08 365.04 1274.8 136.8" fill="#00b900"/></g></svg>