<svg id="Layer_1" data-name="Layer 1" xmlns="http://www.w3.org/2000/svg" viewBox="0 0 318.93 273.9" style=""><path fill="none" stroke="#43fa00" stroke-miterlimit="10" d="M109.77,185.8L209.27,185.8L159.47,271.9L109.77,185.8Z" class="XuDiqHuk_0"></path><path id="Layer_1-2" data-name="Layer 1" d="M208.4,186.3l-48.9,84.6-48.9-84.6h97.8m1.7-1H108.9l50.6,87.6,50.6-87.6Z" transform="translate(-0.03)" fill="none" stroke="#43fa00" stroke-miterlimit="10" class="XuDiqHuk_1"></path><path fill="none" stroke="#43fa00" stroke-miterlimit="10" d="M109.67,181.4L159.47,95.2L209.17,181.4L109.67,181.4Z" class="XuDiqHuk_2"></path><path id="Layer_1-3" data-name="Layer 1" d="M159.5,96.2l48.9,84.6H110.6l48.9-84.6m0-2-50.6,87.6H210.1Z" transform="translate(-0.03)" fill="none" stroke="#43fa00" stroke-miterlimit="10" class="XuDiqHuk_3"></path><path fill="none" stroke="#43fa00" stroke-miterlimit="10" d="M55.67,94L155.17,94L105.47,180.1L55.67,94Z" class="XuDiqHuk_4"></path><path id="Layer_1-4" data-name="Layer 1" d="M154.3,94.5l-48.8,84.6L56.6,94.5h97.7m1.8-1H54.9l50.7,87.6Z" transform="translate(-0.03)" fill="none" stroke="#43fa00" stroke-miterlimit="10" class="XuDiqHuk_5"></path><path fill="none" stroke="#43fa00" stroke-miterlimit="10" d="M164.67,94L264.17,94L214.47,180.1L164.67,94Z" class="XuDiqHuk_6"></path><path id="Layer_1-5" data-name="Layer 1" d="M263.3,94.5l-48.8,84.6L165.6,94.5h97.7m1.8-1H163.9l50.6,87.6Z" transform="translate(-0.03)" fill="none" stroke="#43fa00" stroke-miterlimit="10" class="XuDiqHuk_7"></path><path fill="none" stroke="#43fa00" stroke-miterlimit="10" d="M1.67,1L101.17,1L51.47,87.2L1.67,1Z" class="XuDiqHuk_8"></path><path id="Layer_1-6" data-name="Layer 1" d="M100.3,1.5,51.5,86.2,2.6,1.5h97.7m1.8-1H.9L51.6,88.2Z" transform="translate(-0.03)" fill="none" stroke="#43fa00" stroke-miterlimit="10" class="XuDiqHuk_9"></path><path fill="none" stroke="#43fa00" stroke-miterlimit="10" d="M217.67,1L317.17,1L267.47,87.2L217.67,1Z" class="XuDiqHuk_10"></path><path id="Layer_1-7" data-name="Layer 1" d="M316.3,1.5,267.5,86.2,218.6,1.5h97.7m1.8-1H216.9l50.6,87.7Z" transform="translate(-0.03)" fill="none" stroke="#43fa00" stroke-miterlimit="10" class="XuDiqHuk_11"></path><path fill="none" stroke="#43fa00" stroke-miterlimit="10" d="M55.67,89.4L105.47,3.2L155.17,89.4L55.67,89.4Z" class="XuDiqHuk_12"></path><path id="Layer_1-8" data-name="Layer 1" d="M105.5,4.2l48.9,84.6H56.6L105.5,4.2m0-2L54.9,89.9H156.1Z" transform="translate(-0.03)" fill="none" stroke="#43fa00" stroke-miterlimit="10" class="XuDiqHuk_13"></path><path fill="none" stroke="#43fa00" stroke-miterlimit="10" d="M164.67,89.4L214.47,3.2L264.17,89.4L164.67,89.4Z" class="XuDiqHuk_14"></path><path id="Layer_1-9" data-name="Layer 1" d="M214.5,4.2l48.9,84.6H165.6L214.5,4.2m0-2L163.9,89.8H265.1Z" transform="translate(-0.03)" fill="none" stroke="#43fa00" stroke-miterlimit="10" class="XuDiqHuk_15"></path><style data-made-with="vivus-instant">.XuDiqHuk_0{stroke-dasharray:299 301;stroke-dashoffset:300;animation:XuDiqHuk_draw 2000ms linear 0ms forwards;}.XuDiqHuk_1{stroke-dasharray:597 599;stroke-dashoffset:598;animation:XuDiqHuk_draw 2000ms linear 66ms forwards;}.XuDiqHuk_2{stroke-dasharray:299 301;stroke-dashoffset:300;animation:XuDiqHuk_draw 2000ms linear 133ms forwards;}.XuDiqHuk_3{stroke-dasharray:597 599;stroke-dashoffset:598;animation:XuDiqHuk_draw 2000ms linear 200ms forwards;}.XuDiqHuk_4{stroke-dasharray:299 301;stroke-dashoffset:300;animation:XuDiqHuk_draw 2000ms linear 266ms forwards;}.XuDiqHuk_5{stroke-dasharray:597 599;stroke-dashoffset:598;animation:XuDiqHuk_draw 2000ms linear 333ms forwards;}.XuDiqHuk_6{stroke-dasharray:299 301;stroke-dashoffset:300;animation:XuDiqHuk_draw 2000ms linear 400ms forwards;}.XuDiqHuk_7{stroke-dasharray:597 599;stroke-dashoffset:598;animation:XuDiqHuk_draw 2000ms linear 466ms forwards;}.XuDiqHuk_8{stroke-dasharray:299 301;stroke-dashoffset:300;animation:XuDiqHuk_draw 2000ms linear 533ms forwards;}.XuDiqHuk_9{stroke-dasharray:597 599;stroke-dashoffset:598;animation:XuDiqHuk_draw 2000ms linear 600ms forwards;}.XuDiqHuk_10{stroke-dasharray:299 301;stroke-dashoffset:300;animation:XuDiqHuk_draw 2000ms linear 666ms forwards;}.XuDiqHuk_11{stroke-dasharray:597 599;stroke-dashoffset:598;animation:XuDiqHuk_draw 2000ms linear 733ms forwards;}.XuDiqHuk_12{stroke-dasharray:299 301;stroke-dashoffset:300;animation:XuDiqHuk_draw 2000ms linear 800ms forwards;}.XuDiqHuk_13{stroke-dasharray:597 599;stroke-dashoffset:598;animation:XuDiqHuk_draw 2000ms linear 866ms forwards;}.XuDiqHuk_14{stroke-dasharray:299 301;stroke-dashoffset:300;animation:XuDiqHuk_draw 2000ms linear 933ms forwards;}.XuDiqHuk_15{stroke-dasharray:597 599;stroke-dashoffset:598;animation:XuDiqHuk_draw 2000ms linear 1000ms forwards;}@keyframes XuDiqHuk_draw{100%{stroke-dashoffset:0;}}@keyframes XuDiqHuk_fade{0%{stroke-opacity:1;}94.44444444444444%{stroke-opacity:1;}100%{stroke-opacity:0;}}</style></svg>