<svg id="Layer_1" data-name="Layer 1" xmlns="http://www.w3.org/2000/svg" viewBox="0 0 371.29 320.96"><polygon points="89.04 51.55 2.81 101.2 3.01 1.73 89.04 51.55" fill="none" stroke="aqua" stroke-miterlimit="10"/><path d="M238.75,351.36l.17-97.71,84.58,48.92-84.75,48.79m-1,1.72,87.71-50.49-87.56-50.68-.15,101.17Z" transform="translate(-235.41 -251.05)" fill="none" stroke="aqua" stroke-miterlimit="10"/><polygon points="91.32 55.32 91.17 154.87 5.09 104.96 91.32 55.32" fill="none" stroke="aqua" stroke-miterlimit="10"/><path d="M326.08,405.05l-84.59-48.92,84.76-48.79-.17,97.71m1,1.73.14-101.16-87.7,50.49Z" transform="translate(-235.41 -251.05)" fill="none" stroke="aqua" stroke-miterlimit="10"/><polygon points="181.73 104.12 95.5 153.76 95.61 54.35 181.73 104.12" fill="none" stroke="aqua" stroke-miterlimit="10"/><path d="M331.43,403.93l.09-97.67,84.58,48.93-84.67,48.74m-1.06,1.76,87.71-50.49-87.65-50.62Z" transform="translate(-235.41 -251.05)" fill="none" stroke="aqua" stroke-miterlimit="10"/><polygon points="87.26 158.5 1.03 208.15 1.15 108.73 87.26 158.5" fill="none" stroke="aqua" stroke-miterlimit="10"/><path d="M237,458.31l.08-97.66,84.59,48.92L237,458.31m-1.06,1.77,87.7-50.49-87.56-50.68Z" transform="translate(-235.41 -251.05)" fill="none" stroke="aqua" stroke-miterlimit="10"/><polygon points="87.73 265.55 1.5 315.19 1.56 215.69 87.73 265.55" fill="none" stroke="aqua" stroke-miterlimit="10"/><path d="M237.44,565.35l0-97.75,84.64,49-84.67,48.74m-1.07,1.77,87.71-50.49-87.61-50.76Z" transform="translate(-235.41 -251.05)" fill="none" stroke="aqua" stroke-miterlimit="10"/><polygon points="89.56 162.49 89.41 262.04 3.33 212.13 89.56 162.49" fill="none" stroke="aqua" stroke-miterlimit="10"/><path d="M324.31,512.22,239.73,463.3l84.75-48.79-.17,97.71m1,1.74.15-101.17-87.71,50.49Z" transform="translate(-235.41 -251.05)" fill="none" stroke="aqua" stroke-miterlimit="10"/><polygon points="369.5 105.16 283.72 54.75 370.28 5.75 369.5 105.16" fill="none" stroke="aqua" stroke-miterlimit="10"/><path d="M520.15,305.82l85-48.16-.71,97.71-84.32-49.55m-2,0,87.25,51.28.76-101.16-88,49.88Z" transform="translate(-235.41 -251.05)" fill="none" stroke="aqua" stroke-miterlimit="10"/><polygon points="367.36 109.01 280.74 158.09 281.57 58.59 367.36 109.01" fill="none" stroke="aqua" stroke-miterlimit="10"/><path d="M516.66,408.27l.7-97.71,84.32,49.56-85,48.15m-1,1.73,88-49.89-87.24-51.27Z" transform="translate(-235.41 -251.05)" fill="none" stroke="aqua" stroke-miterlimit="10"/><polygon points="369.63 211.72 283.84 161.3 370.32 112.25 369.63 211.72" fill="none" stroke="aqua" stroke-miterlimit="10"/><path d="M520.28,412.37l84.94-48.21-.71,97.72-84.23-49.51m-2.06-.05,87.25,51.28.67-101.21Z" transform="translate(-235.41 -251.05)" fill="none" stroke="aqua" stroke-miterlimit="10"/><polygon points="275.65 156.49 189.87 106.07 276.35 57.03 275.65 156.49" fill="none" stroke="aqua" stroke-miterlimit="10"/><path d="M426.31,357.15l84.93-48.21-.7,97.71-84.23-49.5m-2.06,0,87.24,51.27.77-101.16Z" transform="translate(-235.41 -251.05)" fill="none" stroke="aqua" stroke-miterlimit="10"/><polygon points="369.06 319.26 283.28 268.84 369.8 219.71 369.06 319.26" fill="none" stroke="aqua" stroke-miterlimit="10"/><path d="M519.71,519.91l85-48.29-.76,97.8-84.23-49.51m-2.06,0,87.25,51.28.73-101.3Z" transform="translate(-235.41 -251.05)" fill="none" stroke="aqua" stroke-miterlimit="10"/><polygon points="182.84 209.81 97.06 159.4 183.58 110.26 182.84 209.81" fill="none" stroke="aqua" stroke-miterlimit="10"/><path d="M333.49,410.47l85-48.3-.76,97.8-84.23-49.5m-2.06-.05,87.25,51.28.81-101.25Z" transform="translate(-235.41 -251.05)" fill="none" stroke="aqua" stroke-miterlimit="10"/><polygon points="367.29 215.68 280.68 264.76 281.51 165.27 367.29 215.68" fill="none" stroke="aqua" stroke-miterlimit="10"/><path d="M516.6,515l.7-97.71,84.32,49.55L516.6,515m-1,1.73,88.06-50L516.4,415.43Z" transform="translate(-235.41 -251.05)" fill="none" stroke="aqua" stroke-miterlimit="10"/><polygon points="273.32 160.45 186.71 209.54 187.54 110.04 273.32 160.45" fill="none" stroke="aqua" stroke-miterlimit="10"/><path d="M422.62,459.72l.71-97.71,84.32,49.55-85,48.16m-1,1.73,88-49.89-87.25-51.27Z" transform="translate(-235.41 -251.05)" fill="none" stroke="aqua" stroke-miterlimit="10"/></svg>