<!--?xml version="1.0" encoding="utf-8"?-->
<!-- Generator: Adobe Illustrator 25.2.1, SVG Export Plug-In . SVG Version: 6.00 Build 0)  -->
<svg version="1.1" id="Layer_1" xmlns="http://www.w3.org/2000/svg" xmlns:xlink="http://www.w3.org/1999/xlink" x="0px" y="0px" viewBox="0 0 318.9 273.9" style="" xml:space="preserve">
<style type="text/css">
	.st0{fill:none;stroke:#F400A5;stroke-miterlimit:10;}
</style>
<path class="st0 oDbdMYEe_0" d="M109.8,185.8L209.3,185.8L159.5,271.9Z"></path>
<path class="st0 oDbdMYEe_1" id="Layer_1" d="M208.4,186.3l-48.9,84.6l-48.9-84.6H208.4 M210.1,185.3H108.9l50.6,87.6L210.1,185.3L210.1,185.3z"></path>
<path class="st0 oDbdMYEe_2" d="M109.7,181.4L159.5,95.2L209.2,181.4Z"></path>
<path class="st0 oDbdMYEe_3" id="Layer_1" d="M159.5,96.2l48.9,84.6h-97.8L159.5,96.2 M159.5,94.2l-50.6,87.6h101.2L159.5,94.2z"></path>
<path class="st0 oDbdMYEe_4" d="M55.7,94L155.2,94L105.5,180.1Z"></path>
<path class="st0 oDbdMYEe_5" id="Layer_1" d="M154.3,94.5l-48.8,84.6L56.6,94.5H154.3 M156.1,93.5H54.9l50.7,87.6L156.1,93.5z"></path>
<path class="st0 oDbdMYEe_6" d="M164.7,94L264.2,94L214.5,180.1Z"></path>
<path class="st0 oDbdMYEe_7" id="Layer_1" d="M263.3,94.5l-48.8,84.6l-48.9-84.6H263.3 M265.1,93.5H163.9l50.6,87.6L265.1,93.5z"></path>
<path class="st0 oDbdMYEe_8" d="M1.7,1L101.2,1L51.5,87.2Z"></path>
<path class="st0 oDbdMYEe_9" id="Layer_1" d="M100.3,1.5L51.5,86.2L2.6,1.5H100.3 M102.1,0.5H0.9l50.7,87.7L102.1,0.5z"></path>
<path class="st0 oDbdMYEe_10" d="M217.7,1L317.2,1L267.5,87.2Z"></path>
<path class="st0 oDbdMYEe_11" id="Layer_1" d="M316.3,1.5l-48.8,84.7L218.6,1.5H316.3 M318.1,0.5H216.9l50.6,87.7L318.1,0.5z"></path>
<path class="st0 oDbdMYEe_12" d="M55.7,89.4L105.5,3.2L155.2,89.4Z"></path>
<path class="st0 oDbdMYEe_13" id="Layer_1" d="M105.5,4.2l48.9,84.6H56.6L105.5,4.2 M105.5,2.2L54.9,89.9h101.2L105.5,2.2z"></path>
<path class="st0 oDbdMYEe_14" d="M164.7,89.4L214.5,3.2L264.2,89.4Z"></path>
<path class="st0 oDbdMYEe_15" id="Layer_1" d="M214.5,4.2l48.9,84.6h-97.8L214.5,4.2 M214.5,2.2l-50.6,87.6h101.2L214.5,2.2z"></path>
<style data-made-with="vivus-instant">.oDbdMYEe_0{stroke-dasharray:299 301;stroke-dashoffset:300;animation:oDbdMYEe_draw 2666ms linear 0ms forwards;}.oDbdMYEe_1{stroke-dasharray:597 599;stroke-dashoffset:598;animation:oDbdMYEe_draw 2666ms linear 88ms forwards;}.oDbdMYEe_2{stroke-dasharray:299 301;stroke-dashoffset:300;animation:oDbdMYEe_draw 2666ms linear 177ms forwards;}.oDbdMYEe_3{stroke-dasharray:597 599;stroke-dashoffset:598;animation:oDbdMYEe_draw 2666ms linear 266ms forwards;}.oDbdMYEe_4{stroke-dasharray:299 301;stroke-dashoffset:300;animation:oDbdMYEe_draw 2666ms linear 355ms forwards;}.oDbdMYEe_5{stroke-dasharray:597 599;stroke-dashoffset:598;animation:oDbdMYEe_draw 2666ms linear 444ms forwards;}.oDbdMYEe_6{stroke-dasharray:299 301;stroke-dashoffset:300;animation:oDbdMYEe_draw 2666ms linear 533ms forwards;}.oDbdMYEe_7{stroke-dasharray:597 599;stroke-dashoffset:598;animation:oDbdMYEe_draw 2666ms linear 622ms forwards;}.oDbdMYEe_8{stroke-dasharray:299 301;stroke-dashoffset:300;animation:oDbdMYEe_draw 2666ms linear 711ms forwards;}.oDbdMYEe_9{stroke-dasharray:597 599;stroke-dashoffset:598;animation:oDbdMYEe_draw 2666ms linear 800ms forwards;}.oDbdMYEe_10{stroke-dasharray:299 301;stroke-dashoffset:300;animation:oDbdMYEe_draw 2666ms linear 888ms forwards;}.oDbdMYEe_11{stroke-dasharray:597 599;stroke-dashoffset:598;animation:oDbdMYEe_draw 2666ms linear 977ms forwards;}.oDbdMYEe_12{stroke-dasharray:299 301;stroke-dashoffset:300;animation:oDbdMYEe_draw 2666ms linear 1066ms forwards;}.oDbdMYEe_13{stroke-dasharray:597 599;stroke-dashoffset:598;animation:oDbdMYEe_draw 2666ms linear 1155ms forwards;}.oDbdMYEe_14{stroke-dasharray:299 301;stroke-dashoffset:300;animation:oDbdMYEe_draw 2666ms linear 1244ms forwards;}.oDbdMYEe_15{stroke-dasharray:597 599;stroke-dashoffset:598;animation:oDbdMYEe_draw 2666ms linear 1333ms forwards;}@keyframes oDbdMYEe_draw{100%{stroke-dashoffset:0;}}@keyframes oDbdMYEe_fade{0%{stroke-opacity:1;}95.1219512195122%{stroke-opacity:1;}100%{stroke-opacity:0;}}</style></svg>
