<?xml version="1.0" encoding="utf-8"?>
<!-- Generator: Adobe Illustrator 25.2.1, SVG Export Plug-In . SVG Version: 6.00 Build 0)  -->
<svg version="1.1" id="Layer_1" xmlns="http://www.w3.org/2000/svg" xmlns:xlink="http://www.w3.org/1999/xlink" x="0px" y="0px"
	 viewBox="0 0 318.9 273.9" style="enable-background:new 0 0 318.9 273.9;" xml:space="preserve">
<style type="text/css">
	.st0{fill:none;stroke:#F400A5;stroke-miterlimit:10;}
</style>
<polygon class="st0" points="109.8,185.8 209.3,185.8 159.5,271.9 "/>
<path class="st0" d="M208.4,186.3l-48.9,84.6l-48.9-84.6H208.4 M210.1,185.3H108.9l50.6,87.6L210.1,185.3L210.1,185.3z"/>
<polygon class="st0" points="109.7,181.4 159.5,95.2 209.2,181.4 "/>
<path class="st0" d="M159.5,96.2l48.9,84.6h-97.8L159.5,96.2 M159.5,94.2l-50.6,87.6h101.2L159.5,94.2z"/>
<polygon class="st0" points="55.7,94 155.2,94 105.5,180.1 "/>
<path class="st0" d="M154.3,94.5l-48.8,84.6L56.6,94.5H154.3 M156.1,93.5H54.9l50.7,87.6L156.1,93.5z"/>
<polygon class="st0" points="164.7,94 264.2,94 214.5,180.1 "/>
<path class="st0" d="M263.3,94.5l-48.8,84.6l-48.9-84.6H263.3 M265.1,93.5H163.9l50.6,87.6L265.1,93.5z"/>
<polygon class="st0" points="1.7,1 101.2,1 51.5,87.2 "/>
<path class="st0" d="M100.3,1.5L51.5,86.2L2.6,1.5H100.3 M102.1,0.5H0.9l50.7,87.7L102.1,0.5z"/>
<polygon class="st0" points="217.7,1 317.2,1 267.5,87.2 "/>
<path class="st0" d="M316.3,1.5l-48.8,84.7L218.6,1.5H316.3 M318.1,0.5H216.9l50.6,87.7L318.1,0.5z"/>
<polygon class="st0" points="55.7,89.4 105.5,3.2 155.2,89.4 "/>
<path class="st0" d="M105.5,4.2l48.9,84.6H56.6L105.5,4.2 M105.5,2.2L54.9,89.9h101.2L105.5,2.2z"/>
<polygon class="st0" points="164.7,89.4 214.5,3.2 264.2,89.4 "/>
<path class="st0" d="M214.5,4.2l48.9,84.6h-97.8L214.5,4.2 M214.5,2.2l-50.6,87.6h101.2L214.5,2.2z"/>
</svg>
