<svg id="Layer_1" data-name="Layer 1" xmlns="http://www.w3.org/2000/svg" viewBox="0 0 460 460"><path d="M648,108a228.34,228.34,0,1,1-89.14,18A227.4,227.4,0,0,1,648,108m0-1c-127,0-230,103-230,230S521,567,648,567,878,464,878,337,775,107,648,107Z" transform="translate(-418 -107)" fill="#f400a5"/><path d="M647.5,118a218.82,218.82,0,1,1-85.44,17.25A218.06,218.06,0,0,1,647.5,118m0-1C525.72,117,427,215.72,427,337.5S525.72,558,647.5,558,868,459.28,868,337.5,769.28,117,647.5,117Z" transform="translate(-418 -107)" fill="#f400a5"/></svg>