<svg id="Layer_1" data-name="Layer 1" xmlns="http://www.w3.org/2000/svg" viewBox="0 0 318.93 273.9"><polygon points="109.77 185.8 209.27 185.8 159.47 271.9 109.77 185.8" fill="none" stroke="#39ff14" stroke-miterlimit="10"/><path id="Layer_1-2" data-name="Layer 1" d="M208.4,186.3l-48.9,84.6-48.9-84.6h97.8m1.7-1H108.9l50.6,87.6,50.6-87.6Z" transform="translate(-0.03)" fill="none" stroke="#39ff14" stroke-miterlimit="10"/><polygon points="109.67 181.4 159.47 95.2 209.17 181.4 109.67 181.4" fill="none" stroke="#39ff14" stroke-miterlimit="10"/><path id="Layer_1-3" data-name="Layer 1" d="M159.5,96.2l48.9,84.6H110.6l48.9-84.6m0-2-50.6,87.6H210.1Z" transform="translate(-0.03)" fill="none" stroke="#39ff14" stroke-miterlimit="10"/><polygon points="55.67 94 155.17 94 105.47 180.1 55.67 94" fill="none" stroke="#39ff14" stroke-miterlimit="10"/><path id="Layer_1-4" data-name="Layer 1" d="M154.3,94.5l-48.8,84.6L56.6,94.5h97.7m1.8-1H54.9l50.7,87.6Z" transform="translate(-0.03)" fill="none" stroke="#39ff14" stroke-miterlimit="10"/><polygon points="164.67 94 264.17 94 214.47 180.1 164.67 94" fill="none" stroke="#39ff14" stroke-miterlimit="10"/><path id="Layer_1-5" data-name="Layer 1" d="M263.3,94.5l-48.8,84.6L165.6,94.5h97.7m1.8-1H163.9l50.6,87.6Z" transform="translate(-0.03)" fill="none" stroke="#39ff14" stroke-miterlimit="10"/><polygon points="1.67 1 101.17 1 51.47 87.2 1.67 1" fill="none" stroke="#39ff14" stroke-miterlimit="10"/><path id="Layer_1-6" data-name="Layer 1" d="M100.3,1.5,51.5,86.2,2.6,1.5h97.7m1.8-1H.9L51.6,88.2Z" transform="translate(-0.03)" fill="none" stroke="#39ff14" stroke-miterlimit="10"/><polygon points="217.67 1 317.17 1 267.47 87.2 217.67 1" fill="none" stroke="#39ff14" stroke-miterlimit="10"/><path id="Layer_1-7" data-name="Layer 1" d="M316.3,1.5,267.5,86.2,218.6,1.5h97.7m1.8-1H216.9l50.6,87.7Z" transform="translate(-0.03)" fill="none" stroke="#39ff14" stroke-miterlimit="10"/><polygon points="55.67 89.4 105.47 3.2 155.17 89.4 55.67 89.4" fill="none" stroke="#39ff14" stroke-miterlimit="10"/><path id="Layer_1-8" data-name="Layer 1" d="M105.5,4.2l48.9,84.6H56.6L105.5,4.2m0-2L54.9,89.9H156.1Z" transform="translate(-0.03)" fill="none" stroke="#39ff14" stroke-miterlimit="10"/><polygon points="164.67 89.4 214.47 3.2 264.17 89.4 164.67 89.4" fill="none" stroke="#39ff14" stroke-miterlimit="10"/><path id="Layer_1-9" data-name="Layer 1" d="M214.5,4.2l48.9,84.6H165.6L214.5,4.2m0-2L163.9,89.8H265.1Z" transform="translate(-0.03)" fill="none" stroke="#39ff14" stroke-miterlimit="10"/></svg>