<svg id="Layer_1" data-name="Layer 1" xmlns="http://www.w3.org/2000/svg" viewBox="0 0 233.2 71.48"><path d="M53.64,49.53l-.35,6.28a16.27,16.27,0,0,1,5.58-5.61,14.42,14.42,0,0,1,7.37-1.87q8.07,0,12.7,7.48a18.13,18.13,0,0,1,5.73-5.61,13.66,13.66,0,0,1,7.07-1.87,13.88,13.88,0,0,1,8.49,2.49,11,11,0,0,1,4.31,6.1q.94,3.61.94,11.73v47H86V72.54c0-5.65-.19-9.14-.57-10.49a2.53,2.53,0,0,0-2.67-2A2.63,2.63,0,0,0,80,62c-.42,1.32-.62,4.83-.62,10.51v43.08H59.81v-42q0-9.7-.47-11.65A2.4,2.4,0,0,0,56.73,60a3,3,0,0,0-2.29,1,3.91,3.91,0,0,0-1,2.49q-.11,1.47-.1,6.25v45.82H33.77V49.53Z" transform="translate(-32.27 -46.83)" fill="none" stroke="#43fa00" stroke-miterlimit="10" stroke-width="3"/><path d="M158,83.74h-26V98c0,3,.22,4.91.65,5.77a2.51,2.51,0,0,0,2.49,1.3,3,3,0,0,0,3.06-1.72c.52-1.15.77-3.36.77-6.65V88H158v4.89a44,44,0,0,1-.77,9.41,19.28,19.28,0,0,1-3.61,7,17.63,17.63,0,0,1-7.2,5.6,27.78,27.78,0,0,1-10.93,1.87A31.73,31.73,0,0,1,124.21,115a17.52,17.52,0,0,1-11.35-12.13,45.48,45.48,0,0,1-1-11.23V72.34q0-8.67,2.34-13.68A16.13,16.13,0,0,1,121.82,51a27.12,27.12,0,0,1,12.25-2.66q8.48,0,14,3.21a17.61,17.61,0,0,1,7.72,8.52Q158,65.37,158,75ZM137.81,73V68.15a24.47,24.47,0,0,0-.55-6.62A2.17,2.17,0,0,0,135,60c-1.4,0-2.26.43-2.59,1.27s-.5,3.13-.5,6.85V73Z" transform="translate(-32.27 -46.83)" fill="none" stroke="#43fa00" stroke-miterlimit="10" stroke-width="3"/><path d="M185,49.53l-.35,6.08A15.18,15.18,0,0,1,190,50.15a14.39,14.39,0,0,1,7.29-1.82,13.81,13.81,0,0,1,8.47,2.44A10.87,10.87,0,0,1,210,56.92q.94,3.72.95,12.38v46.32H190.85V69.85c0-4.55-.15-7.33-.45-8.32s-1.13-1.5-2.49-1.5a2.5,2.5,0,0,0-2.69,1.72c-.36,1.15-.55,4.21-.55,9.19v44.68H164.55V49.53Z" transform="translate(-32.27 -46.83)" fill="none" stroke="#43fa00" stroke-miterlimit="10" stroke-width="3"/><path d="M264,49.53v66.09H243.49l.35-5.5a14,14,0,0,1-5.15,5,14.52,14.52,0,0,1-7.05,1.67,15.9,15.9,0,0,1-7.52-1.59,10.34,10.34,0,0,1-4.41-4.24,15.35,15.35,0,0,1-1.77-5.5q-.34-2.87-.35-11.38V49.53h20.13v45c0,5.15.15,8.2.47,9.16s1.17,1.45,2.56,1.45,2.39-.5,2.67-1.5.42-4.2.42-9.61V49.53Z" transform="translate(-32.27 -46.83)" fill="none" stroke="#43fa00" stroke-miterlimit="10" stroke-width="3"/></svg>